<svg width="18" height="18" viewBox="0 0 18 18" fill="none" xmlns="http://www.w3.org/2000/svg">
<g clip-path="url(#clip0_25_14796)">
<path fill-rule="evenodd" clip-rule="evenodd" d="M12.6324 4.91101C11.7032 4.02474 10.463 3.54191 9.17992 3.56176C6.83196 3.56176 4.83785 5.1458 4.12684 7.2788V7.27885C3.74984 8.39661 3.74984 9.60697 4.12683 10.7247H4.13013C4.84445 12.8544 6.83526 14.4385 9.18323 14.4385C10.3952 14.4385 11.4358 14.1285 12.2422 13.5809V13.5787C13.1913 12.9504 13.8395 11.9616 14.0412 10.8438H9.17993V7.37807H17.669C17.7748 7.97994 17.8244 8.59504 17.8244 9.20684C17.8244 11.9442 16.8462 14.2586 15.144 15.8261L15.1458 15.8274C13.6543 17.2031 11.6073 18.0001 9.17992 18.0001C5.77702 18.0001 2.66513 16.0821 1.1373 13.0429V13.0429C-0.139194 10.4998 -0.139191 7.50372 1.13731 4.96064H1.13733L1.1373 4.96062C2.66513 1.91818 5.77702 0.000118218 9.17992 0.000118218C11.4155 -0.0263378 13.5749 0.81364 15.202 2.34147L12.6324 4.91101Z" fill="#040415"/>
</g>
<defs>
<clipPath id="clip0_25_14796">
<rect width="18" height="18" fill="white"/>
</clipPath>
</defs>
</svg>
