<svg width="16" height="16" viewBox="0 0 16 16" fill="none" xmlns="http://www.w3.org/2000/svg">
<path fill-rule="evenodd" clip-rule="evenodd" d="M6.19349 0.895264C4.05757 0.895264 2.34299 2.60524 2.34299 4.73483C2.34299 6.86502 4.05744 8.57514 6.19349 8.57514C8.32965 8.57514 10.0447 6.86492 10.0447 4.73483C10.0447 2.60535 8.32952 0.895264 6.19349 0.895264ZM6.19349 2.01707C7.70824 2.01707 8.91974 3.22494 8.91974 4.73483C8.91974 6.24536 7.70833 7.45333 6.19349 7.45333C4.67884 7.45333 3.46799 6.24555 3.46799 4.73483C3.46799 3.22476 4.67893 2.01707 6.19349 2.01707ZM14.0503 4.72181C14.0503 3.05068 12.6912 1.69519 11.015 1.69519C10.7044 1.69519 10.4525 1.94631 10.4525 2.25609C10.4525 2.56587 10.7044 2.81699 11.015 2.81699C12.0698 2.81699 12.9253 3.67018 12.9253 4.72181C12.9253 5.77391 12.0701 6.62664 11.015 6.62664C10.7044 6.62664 10.4525 6.87776 10.4525 7.18754C10.4525 7.49732 10.7044 7.74844 11.015 7.74844C12.6914 7.74844 14.0503 6.39346 14.0503 4.72181ZM13.4746 9.49128C13.0586 9.39931 12.6257 9.33708 12.1903 9.30755C11.8803 9.28652 11.612 9.52003 11.5909 9.82909C11.5698 10.1382 11.804 10.4057 12.1139 10.4268C12.4931 10.4525 12.8702 10.5067 13.2433 10.5891C13.8257 10.7047 14.2115 10.8969 14.3158 11.1151C14.3944 11.2801 14.3944 11.4734 14.3156 11.6389C14.2119 11.8564 13.8282 12.0481 13.2515 12.1664C12.9472 12.2288 12.7513 12.5254 12.8139 12.8288C12.8765 13.1322 13.1739 13.3276 13.4782 13.2652C14.3743 13.0814 15.0298 12.7539 15.3317 12.1204C15.5557 11.6503 15.5557 11.1032 15.3316 10.633C15.0281 9.99796 14.3656 9.66803 13.4746 9.49128ZM0.500244 12.5011C0.500244 10.5383 2.56844 9.83716 6.19349 9.83716L6.43333 9.83819C9.91665 9.86842 11.8875 10.57 11.8875 12.4861C11.8875 14.3617 9.99862 15.0852 6.6676 15.1458L6.19349 15.15C2.56024 15.15 0.500244 14.4613 0.500244 12.5011ZM10.7625 12.4861C10.7625 11.4782 9.20957 10.959 6.19349 10.959C3.18048 10.959 1.62524 11.4862 1.62524 12.5011C1.62524 13.5095 3.17675 14.0282 6.19349 14.0282C9.20672 14.0282 10.7625 13.5009 10.7625 12.4861Z" fill="#040415"/>
</svg>
