<svg width="82" height="53" viewBox="0 0 82 53" fill="none" xmlns="http://www.w3.org/2000/svg">
<path fill-rule="evenodd" clip-rule="evenodd" d="M40.8661 43.0819C37.0681 46.3272 32.1414 48.2863 26.7579 48.2863C14.7457 48.2863 5.00781 38.5325 5.00781 26.5006C5.00781 14.4686 14.7457 4.71484 26.7579 4.71484C32.1414 4.71484 37.0681 6.67393 40.8661 9.91918C44.6641 6.67393 49.5908 4.71484 54.9743 4.71484C66.9865 4.71484 76.7244 14.4686 76.7244 26.5006C76.7244 38.5325 66.9865 48.2863 54.9743 48.2863C49.5908 48.2863 44.6641 46.3272 40.8661 43.0819Z" fill="#ED0006"/>
<path fill-rule="evenodd" clip-rule="evenodd" d="M40.866 43.082C45.5425 39.0861 48.5079 33.1402 48.5079 26.5006C48.5079 19.8609 45.5425 13.915 40.866 9.91913C44.664 6.67391 49.5906 4.71484 54.9741 4.71484C66.9863 4.71484 76.7242 14.4686 76.7242 26.5006C76.7242 38.5325 66.9863 48.2863 54.9741 48.2863C49.5906 48.2863 44.664 46.3272 40.866 43.082Z" fill="#F9A000"/>
<path fill-rule="evenodd" clip-rule="evenodd" d="M40.8662 43.0825C45.5426 39.0866 48.508 33.1408 48.508 26.5012C48.508 19.8617 45.5426 13.9158 40.8662 9.91992C36.1897 13.9158 33.2244 19.8617 33.2244 26.5012C33.2244 33.1408 36.1897 39.0866 40.8662 43.0825Z" fill="#FF5E00"/>
</svg>
