<svg width="73" height="73" viewBox="0 0 73 73" fill="none" xmlns="http://www.w3.org/2000/svg">
<circle cx="36.5" cy="36.5" r="36.5" fill="#F3F3F3"/>
<path opacity="0.3" d="M21.9167 37.9583C21.9167 37.2292 22.6458 36.5 23.375 36.5C24.1042 36.5 24.8333 37.2292 24.8333 37.9583C24.8333 38.4444 24.8333 40.875 24.8333 45.25C24.8333 46.8608 26.1392 48.1667 27.75 48.1667H45.25C46.8608 48.1667 48.1667 46.8608 48.1667 45.25V37.9583C48.1667 37.1529 48.8196 36.5 49.625 36.5C50.4304 36.5 51.0833 37.1529 51.0833 37.9583V45.25C51.0833 48.4717 48.4717 51.0833 45.25 51.0833H27.75C24.5283 51.0833 21.9167 48.4717 21.9167 45.25C21.9167 40.875 21.9167 38.4444 21.9167 37.9583Z" fill="#8A94A6"/>
<path opacity="0.3" d="M37.9583 23.3748C37.9583 22.5694 37.3054 21.9165 36.5 21.9165C35.6946 21.9165 35.0417 22.5694 35.0417 23.3748V40.8748C35.0417 41.6803 35.6946 42.3332 36.5 42.3332C37.3054 42.3332 37.9583 41.6803 37.9583 40.8748V23.3748Z" fill="#8A94A6"/>
<path opacity="0.3" d="M36.5528 23.9264L30.2395 30.2397C29.67 30.8092 28.7467 30.8092 28.1771 30.2397C27.6076 29.6702 27.6076 28.7468 28.1771 28.1773L35.4688 20.8856C36.0173 20.3372 36.8991 20.314 37.4756 20.8329L44.7672 27.3954C45.3659 27.9342 45.4144 28.8562 44.8756 29.4549C44.3368 30.0536 43.4148 30.1021 42.8161 29.5633L36.5528 23.9264Z" fill="#8A94A6"/>
</svg>
