<svg width="34" height="78" viewBox="0 0 34 78" fill="none" xmlns="http://www.w3.org/2000/svg">
<g filter="url(#filter0_b_251_19951)">
<path fill-rule="evenodd" clip-rule="evenodd" d="M22 39C22 42.4158 24.3595 45.2954 27.1049 47.3279C31.2881 50.4247 34 55.3956 34 61C34 70.3888 26.3888 78 17 78C7.61116 78 -3.32694e-07 70.3888 -7.43093e-07 61C-9.661e-07 55.8982 2.24736 51.3213 5.80612 48.2053C8.56278 45.7916 11 42.664 11 39V39C11 35.336 8.56278 32.2084 5.80612 29.7947C2.24736 26.6787 -2.44339e-06 22.1018 -2.66639e-06 17C-3.07679e-06 7.61116 7.61116 -3.32694e-07 17 -7.43094e-07C26.3888 -1.15349e-06 34 7.61116 34 17C34 22.6044 31.2881 27.5753 27.1049 30.6721C24.3595 32.7046 22 35.5842 22 39V39Z" fill="#644D40"/>
</g>
<defs>
<filter id="filter0_b_251_19951" x="-110" y="-110" width="254" height="298" filterUnits="userSpaceOnUse" color-interpolation-filters="sRGB">
<feFlood flood-opacity="0" result="BackgroundImageFix"/>
<feGaussianBlur in="BackgroundImage" stdDeviation="55"/>
<feComposite in2="SourceAlpha" operator="in" result="effect1_backgroundBlur_251_19951"/>
<feBlend mode="normal" in="SourceGraphic" in2="effect1_backgroundBlur_251_19951" result="shape"/>
</filter>
</defs>
</svg>
