<svg width="57" height="24" viewBox="0 0 57 24" fill="none" xmlns="http://www.w3.org/2000/svg">
<path fill-rule="evenodd" clip-rule="evenodd" d="M16.2505 19.8754H12.0099L8.82991 7.46305C8.67897 6.89208 8.35849 6.38731 7.88708 6.14941C6.71062 5.55155 5.41424 5.07574 4 4.83577V4.35789H10.8313C11.7742 4.35789 12.4813 5.07574 12.5991 5.90944L14.2491 14.8629L18.4877 4.35789H22.6104L16.2505 19.8754ZM24.9675 19.8754H20.9626L24.2604 4.35788H28.2654L24.9675 19.8754ZM33.4467 8.6567C33.5646 7.82093 34.2717 7.34306 35.0967 7.34306C36.3931 7.22307 37.8052 7.46304 38.9838 8.05884L39.6909 4.71785C38.5123 4.23997 37.216 4 36.0395 4C32.1524 4 29.3239 6.1494 29.3239 9.1325C29.3239 11.4019 31.3274 12.5935 32.7417 13.3113C34.2717 14.0271 34.861 14.505 34.7431 15.2208C34.7431 16.2944 33.5646 16.7723 32.3881 16.7723C30.9739 16.7723 29.5597 16.4144 28.2653 15.8166L27.5582 19.1596C28.9725 19.7554 30.5025 19.9954 31.9167 19.9954C36.2752 20.1133 38.9838 17.966 38.9838 14.7429C38.9838 10.684 33.4467 10.4461 33.4467 8.6567ZM53 19.8754L49.82 4.35788H46.4044C45.6973 4.35788 44.9901 4.83575 44.7544 5.55153L38.8659 19.8754H42.9887L43.8116 17.6081H48.8772L49.3486 19.8754H53ZM46.9936 8.53671L48.1701 14.385H44.8723L46.9936 8.53671Z" fill="#172B85"/>
</svg>
