<svg width="32" height="32" viewBox="0 0 32 32" fill="none" xmlns="http://www.w3.org/2000/svg">
<path fill-rule="evenodd" clip-rule="evenodd" d="M15.9998 26.6667C21.8909 26.6667 26.6665 21.8911 26.6665 16C26.6665 10.109 21.8909 5.33335 15.9998 5.33335C10.1088 5.33335 5.33317 10.109 5.33317 16C5.33317 21.8911 10.1088 26.6667 15.9998 26.6667ZM15.9998 29.3334C23.3636 29.3334 29.3332 23.3638 29.3332 16C29.3332 8.63622 23.3636 2.66669 15.9998 2.66669C8.63604 2.66669 2.6665 8.63622 2.6665 16C2.6665 23.3638 8.63604 29.3334 15.9998 29.3334Z" fill="#EF466F"/>
<path fill-rule="evenodd" clip-rule="evenodd" d="M15.9998 9.33331C15.2635 9.33331 14.6665 9.93027 14.6665 10.6666C14.6665 11.403 15.2635 12 15.9998 12C16.7362 12 17.3332 11.403 17.3332 10.6666C17.3332 9.93027 16.7362 9.33331 15.9998 9.33331ZM15.9998 14.6666C15.2635 14.6666 14.6665 15.2636 14.6665 16V21.3333C14.6665 22.0697 15.2635 22.6666 15.9998 22.6666C16.7362 22.6666 17.3332 22.0697 17.3332 21.3333V16C17.3332 15.2636 16.7362 14.6666 15.9998 14.6666Z" fill="#EF466F"/>
</svg>
