<svg width="73" height="73" viewBox="0 0 73 73" fill="none" xmlns="http://www.w3.org/2000/svg">
<circle cx="36.5" cy="36.5" r="36.5" fill="#EDEDED"/>
<path fill-rule="evenodd" clip-rule="evenodd" d="M32.6856 19.5H41.3141C43.123 19.5126 44.548 20.4525 45.3744 22.0803C45.4931 22.3125 45.6344 22.598 45.8045 22.9489L46.984 25.4286C47.0487 25.5652 47.1852 25.6516 47.372 25.6521L47.7597 25.6627C51.9963 25.8841 55.3332 29.3858 55.3332 33.6402V44.5114C55.3332 48.9224 51.7525 52.5 47.3362 52.5H26.6653C22.2475 52.5 18.6665 48.9227 18.6665 44.5114V33.6402C18.6665 29.2276 22.247 25.6516 26.5776 25.6544L26.7148 25.6485C26.8456 25.6317 26.9606 25.5485 27.0169 25.4298L27.9175 23.5291L28.6243 22.0821C29.4548 20.4514 30.8775 19.5126 32.6856 19.5ZM41.3045 22.2471L32.7048 22.247C31.9581 22.2522 31.4535 22.5851 31.0756 23.3273C30.9652 23.5442 30.8302 23.8181 30.6654 24.1588L29.5032 26.6036C29.0447 27.5715 28.1239 28.2373 26.9778 28.3816L26.6653 28.3987C23.7656 28.3987 21.4165 30.7449 21.4165 33.6402V44.5114C21.4165 47.4055 23.7663 49.7529 26.6653 49.7529H47.3362C50.2336 49.7529 52.5832 47.4053 52.5832 44.5114V33.6402C52.5832 30.849 50.3935 28.5512 47.652 28.4074L47.058 28.3865C45.955 28.2888 44.9775 27.6151 44.4977 26.6024L43.2171 23.9154L42.9235 23.3262C42.5475 22.5855 42.0422 22.2522 41.3045 22.2471ZM29.7978 38.4361C29.7659 34.4921 33.0273 31.2193 37.008 31.2239L37.3782 31.2337C41.1795 31.4315 44.2089 34.5906 44.2023 38.4401C44.1955 42.4 40.9653 45.6288 37.0036 45.6333C33.0348 45.6356 29.7955 42.3934 29.7978 38.4361ZM41.4523 38.4354C41.4565 35.9788 39.4576 33.9737 37.0049 33.9709L36.7126 33.9803C34.3928 34.1312 32.5289 36.0955 32.5478 38.4257C32.5464 40.8777 34.5544 42.8876 37.0012 42.8862C39.4457 42.8834 41.4481 40.8819 41.4523 38.4354ZM45.4401 33.9974C45.6361 34.0762 45.811 34.1224 45.9881 34.1405L46.1669 34.1495L46.3488 34.1406C46.7698 34.0988 47.1646 33.9129 47.4651 33.6107C47.8129 33.2417 48.0002 32.7984 48.0002 32.319C48.0002 32.0695 47.9491 31.8221 47.8479 31.5946L47.8061 31.4876C47.7357 31.3367 47.6088 31.1577 47.4582 31.0094C46.9554 30.5074 46.1509 30.3475 45.4746 30.6152C45.2466 30.7155 45.0797 30.8295 44.9169 30.9712C44.7028 31.1795 44.5843 31.371 44.4844 31.598C44.3846 31.8221 44.3335 32.0695 44.3335 32.319C44.3335 32.7889 44.5233 33.2443 44.8511 33.5925C45.0335 33.7777 45.2222 33.9007 45.4401 33.9974Z" fill="#AEAEAE"/>
</svg>
