<svg width="20" height="23" viewBox="0 0 20 23" fill="none" xmlns="http://www.w3.org/2000/svg">
<path fill-rule="evenodd" clip-rule="evenodd" d="M1 4C1 2.34315 2.34315 1 4 1H16C17.6569 1 19 2.34315 19 4V11C19 12.6569 17.6569 14 16 14H4C2.34315 14 1 12.6569 1 11V4ZM4 3C3.44772 3 3 3.44772 3 4V11C3 11.5523 3.44772 12 4 12H16C16.5523 12 17 11.5523 17 11V4C17 3.44772 16.5523 3 16 3H4Z" fill="#808191"/>
<path d="M1 17C1 16.4477 1.44772 16 2 16H18C18.5523 16 19 16.4477 19 17C19 17.5523 18.5523 18 18 18H2C1.44772 18 1 17.5523 1 17Z" fill="#808191"/>
<path d="M2 20C1.44772 20 1 20.4477 1 21C1 21.5523 1.44772 22 2 22H10C10.5523 22 11 21.5523 11 21C11 20.4477 10.5523 20 10 20H2Z" fill="#808191"/>
<path fill-rule="evenodd" clip-rule="evenodd" d="M1 4C1 2.34315 2.34315 1 4 1H16C17.6569 1 19 2.34315 19 4V11C19 12.6569 17.6569 14 16 14H4C2.34315 14 1 12.6569 1 11V4ZM4 3C3.44772 3 3 3.44772 3 4V11C3 11.5523 3.44772 12 4 12H16C16.5523 12 17 11.5523 17 11V4C17 3.44772 16.5523 3 16 3H4Z" stroke="white" stroke-width="0.5" stroke-linecap="round" stroke-linejoin="round"/>
<path d="M1 17C1 16.4477 1.44772 16 2 16H18C18.5523 16 19 16.4477 19 17C19 17.5523 18.5523 18 18 18H2C1.44772 18 1 17.5523 1 17Z" stroke="white" stroke-width="0.5" stroke-linecap="round" stroke-linejoin="round"/>
<path d="M2 20C1.44772 20 1 20.4477 1 21C1 21.5523 1.44772 22 2 22H10C10.5523 22 11 21.5523 11 21C11 20.4477 10.5523 20 10 20H2Z" stroke="white" stroke-width="0.5" stroke-linecap="round" stroke-linejoin="round"/>
</svg>
