<svg width="18" height="18" viewBox="0 0 18 18" fill="none" xmlns="http://www.w3.org/2000/svg">
<path d="M2.76862 9.42997L10.4129 1.78568C11.7309 0.467661 13.8679 0.467659 15.1859 1.78568C16.4944 3.09425 16.5038 5.21002 15.214 6.53017L7.54171 14.203C6.66303 15.0816 5.23841 15.0816 4.35973 14.203C3.48105 13.3243 3.48105 11.8997 4.35973 11.021L8.60237 6.77833C8.89526 6.48544 9.37014 6.48544 9.66303 6.77833C9.95592 7.07122 9.95592 7.5461 9.66303 7.83899L5.42039 12.0816C5.1275 12.3745 5.1275 12.8494 5.42039 13.1423C5.71328 13.4352 6.18816 13.4352 6.48105 13.1423L14.1253 5.49806C14.8575 4.76583 14.8575 3.57857 14.1252 2.84634C13.393 2.11411 12.2058 2.11411 11.4736 2.84634L3.82932 10.4906C2.65775 11.6622 2.65783 13.5617 3.8294 14.7333C5.00098 15.9049 6.90047 15.9049 8.07204 14.7333L12.3147 10.4907C12.6076 10.1978 13.0825 10.1978 13.3753 10.4907C13.6682 10.7836 13.6682 11.2584 13.3753 11.5513L9.1327 15.794C7.37535 17.5513 4.5261 17.5513 2.76874 15.794C1.0114 14.0366 1.0113 11.1873 2.76862 9.42997Z" fill="#1E1E1E"/>
</svg>
