<svg width="18" height="18" viewBox="0 0 18 18" fill="none" xmlns="http://www.w3.org/2000/svg">
<path d="M14.0303 6.53033C14.3232 6.23744 14.3232 5.76256 14.0303 5.46967C13.7374 5.17678 13.2626 5.17678 12.9697 5.46967L7.5 10.9393L5.03033 8.46967C4.73744 8.17678 4.26256 8.17678 3.96967 8.46967C3.67678 8.76256 3.67678 9.23744 3.96967 9.53033L6.96967 12.5303C7.26256 12.8232 7.73744 12.8232 8.03033 12.5303L14.0303 6.53033Z" fill="#1E1E1E"/>
<path fill-rule="evenodd" clip-rule="evenodd" d="M3 0.75C1.75736 0.75 0.75 1.75736 0.75 3V15C0.75 16.2426 1.75736 17.25 3 17.25H15C16.2426 17.25 17.25 16.2426 17.25 15V3C17.25 1.75736 16.2426 0.75 15 0.75H3ZM2.25 3C2.25 2.58579 2.58579 2.25 3 2.25H15C15.4142 2.25 15.75 2.58579 15.75 3V15C15.75 15.4142 15.4142 15.75 15 15.75H3C2.58579 15.75 2.25 15.4142 2.25 15V3Z" fill="#1E1E1E"/>
</svg>
