<svg width="14" height="14" viewBox="0 0 14 14" fill="none" xmlns="http://www.w3.org/2000/svg">
<g clip-path="url(#clip0_3682_48814)">
<path d="M9.995 3.5H1.01C0.744251 3.50128 0.489603 3.60674 0.300756 3.79371C0.111908 3.98069 0.00392429 4.23428 0 4.5L0 4.906C0.000264743 5.17379 0.10676 5.43053 0.296115 5.61989C0.485469 5.80924 0.742213 5.91574 1.01 5.916H9.995C10.2628 5.91574 10.5195 5.80924 10.7089 5.61989C10.8982 5.43053 11.0047 5.17379 11.005 4.906V4.5C11.0016 4.23411 10.8938 3.98023 10.7048 3.79314C10.5159 3.60605 10.2609 3.50077 9.995 3.5V3.5Z" fill="black"/>
<path d="M12.99 8.08099H1.01C0.744251 8.08227 0.489604 8.18773 0.300756 8.37471C0.111908 8.56168 0.00392479 8.81527 4.95094e-07 9.08099V9.48799C-0.000130892 9.62076 0.0258893 9.75225 0.0765755 9.87496C0.127262 9.99767 0.201621 10.1092 0.295408 10.2032C0.389195 10.2971 0.500574 10.3717 0.623184 10.4227C0.745793 10.4736 0.877234 10.4999 1.01 10.5H12.99C13.2576 10.4997 13.5142 10.3934 13.7035 10.2042C13.8929 10.0151 13.9995 9.75861 14 9.49099V9.08299C13.9966 8.81692 13.8888 8.56283 13.6999 8.37542C13.511 8.18801 13.2561 8.08228 12.99 8.08099V8.08099Z" fill="black"/>
</g>
<defs>
<clipPath id="clip0_3682_48814">
<rect width="14" height="14" fill="white"/>
</clipPath>
</defs>
</svg>
