<svg width="18" height="18" viewBox="0 0 18 18" fill="none" xmlns="http://www.w3.org/2000/svg">
<path d="M13.6553 6.90533C13.9482 6.61244 13.9482 6.13756 13.6553 5.84467C13.3624 5.55178 12.8876 5.55178 12.5947 5.84467L7.5 10.9393L5.03033 8.46967C4.73744 8.17678 4.26256 8.17678 3.96967 8.46967C3.67678 8.76256 3.67678 9.23744 3.96967 9.53033L6.96967 12.5303C7.26256 12.8232 7.73744 12.8232 8.03033 12.5303L13.6553 6.90533Z" fill="#1E1E1E"/>
<path fill-rule="evenodd" clip-rule="evenodd" d="M18 9C18 13.9706 13.9706 18 9 18C4.02944 18 0 13.9706 0 9C0 4.02944 4.02944 0 9 0C13.9706 0 18 4.02944 18 9ZM16.5 9C16.5 13.1421 13.1421 16.5 9 16.5C4.85786 16.5 1.5 13.1421 1.5 9C1.5 4.85786 4.85786 1.5 9 1.5C13.1421 1.5 16.5 4.85786 16.5 9Z" fill="#1E1E1E"/>
</svg>
