<svg width="14" height="14" viewBox="0 0 14 14" fill="none" xmlns="http://www.w3.org/2000/svg">
<g clip-path="url(#clip0)">
<path fill-rule="evenodd" clip-rule="evenodd" d="M6.50024 0.214123L2.84824 3.82112C2.67864 3.98954 2.58288 4.21843 2.58204 4.45744C2.58119 4.69646 2.67533 4.92602 2.84374 5.09562C3.01216 5.26523 3.24105 5.36099 3.48006 5.36183C3.71908 5.36267 3.94864 5.26854 4.11824 5.10012L5.76224 3.48312C5.77524 3.46912 6.49924 2.77512 6.49924 2.77512C6.5599 2.69342 6.63884 2.62705 6.72974 2.58132C6.82064 2.53559 6.92099 2.51178 7.02274 2.51178C7.1245 2.51178 7.22484 2.53559 7.31575 2.58132C7.40665 2.62705 7.48559 2.69342 7.54624 2.77512L8.25224 3.48912L8.81224 4.05612L9.88124 5.15012C10.0502 5.31946 10.2795 5.41476 10.5187 5.41504C10.7579 5.41532 10.9874 5.32057 11.1567 5.15162C11.3261 4.98268 11.4214 4.75339 11.4217 4.51418C11.4219 4.27498 11.3272 4.04546 11.1582 3.87612L7.54624 0.219123C7.40802 0.0800827 7.22033 0.00148753 7.02428 0.000550553C6.82822 -0.000386424 6.63979 0.0764106 6.50024 0.214123Z" fill="#1F2128"/>
<path fill-rule="evenodd" clip-rule="evenodd" d="M5.74803 10.4999L5.18703 9.93293L4.11903 8.84993C4.03538 8.76608 3.93603 8.69953 3.82666 8.65408C3.71728 8.60862 3.60003 8.58515 3.48159 8.58502C3.36315 8.58488 3.24584 8.60807 3.13636 8.65326C3.02688 8.69846 2.92738 8.76478 2.84353 8.84843C2.75968 8.93208 2.69313 9.03143 2.64767 9.1408C2.60222 9.25017 2.57875 9.36743 2.57861 9.48587C2.57833 9.72507 2.67309 9.95459 2.84203 10.1239L6.45403 13.7809C6.59225 13.92 6.77994 13.9986 6.976 13.9995C7.17205 14.0004 7.36048 13.9236 7.50003 13.7859L11.151 10.1789C11.235 10.0955 11.3017 9.99643 11.3474 9.88725C11.3931 9.77807 11.4168 9.66096 11.4172 9.54261C11.4177 9.42426 11.3948 9.30699 11.3499 9.19749C11.3049 9.08799 11.2389 8.98841 11.1555 8.90443C11.0721 8.82045 10.973 8.75372 10.8638 8.70804C10.7547 8.66236 10.6376 8.63864 10.5192 8.63822C10.4009 8.6378 10.2836 8.6607 10.1741 8.70561C10.0646 8.75051 9.96501 8.81654 9.88103 8.89993L8.23803 10.5139L7.50003 11.2219C7.43937 11.3036 7.36043 11.37 7.26953 11.4157C7.17863 11.4615 7.07829 11.4853 6.97653 11.4853C6.87477 11.4853 6.77443 11.4615 6.68353 11.4157C6.59262 11.37 6.51369 11.3036 6.45303 11.2219L5.74803 10.4999Z" fill="#1F2128"/>
</g>
<defs>
<clipPath id="clip0">
<rect width="14" height="14" fill="white" transform="translate(0 14) rotate(-90)"/>
</clipPath>
</defs>
</svg>
