<svg width="20" height="20" viewBox="0 0 20 20" fill="none" xmlns="http://www.w3.org/2000/svg">
<rect width="20" height="20" rx="10" fill="#F0F1F2"/>
<path d="M6.91297 10.754C6.95064 10.7927 7.09287 10.958 7.22536 11.094C8.00211 11.9493 10.0284 13.3493 11.089 13.7767C11.25 13.8453 11.6573 13.9907 11.8748 14C12.0833 14 12.282 13.952 12.4717 13.8547C12.7081 13.7187 12.8977 13.5047 13.0016 13.252C13.0685 13.0767 13.1724 12.552 13.1724 12.5427C13.2763 11.9687 13.3335 11.036 13.3335 10.0053C13.3335 9.02333 13.2763 8.12867 13.1913 7.546C13.1815 7.53667 13.0776 6.88467 12.964 6.66133C12.7555 6.25333 12.3483 6 11.9125 6H11.8748C11.591 6.01 10.9942 6.26333 10.9942 6.27267C9.99075 6.70067 8.0112 8.032 7.21562 8.91667C7.21562 8.91667 6.99156 9.144 6.89414 9.286C6.74217 9.49 6.66683 9.74267 6.66683 9.99533C6.66683 10.2773 6.75191 10.54 6.91297 10.754Z" fill="#A7ADB5"/>
</svg>
