<svg width="20" height="20" viewBox="0 0 20 20" fill="none" xmlns="http://www.w3.org/2000/svg">
<rect width="20" height="20" rx="10" fill="#F0F1F2"/>
<path d="M13.087 10.754C13.0494 10.7927 12.9071 10.958 12.7746 11.094C11.9979 11.9493 9.97159 13.3493 8.91102 13.7767C8.74996 13.8453 8.34275 13.9907 8.12518 14C7.91671 14 7.71797 13.952 7.52833 13.8547C7.29193 13.7187 7.10229 13.5047 6.99838 13.252C6.93148 13.0767 6.82757 12.552 6.82757 12.5427C6.72366 11.9687 6.6665 11.036 6.6665 10.0053C6.6665 9.02333 6.72366 8.12867 6.80873 7.546C6.81848 7.53667 6.92239 6.88467 7.03604 6.66133C7.24452 6.25333 7.65173 6 8.08751 6H8.12518C8.40899 6.01 9.00584 6.26333 9.00584 6.27267C10.0093 6.70067 11.9888 8.032 12.7844 8.91667C12.7844 8.91667 13.0084 9.144 13.1059 9.286C13.2578 9.49 13.3332 9.74267 13.3332 9.99533C13.3332 10.2773 13.2481 10.54 13.087 10.754Z" fill="#A7ADB5"/>
</svg>
