<svg width="67" height="86" viewBox="0 0 67 86" fill="none" xmlns="http://www.w3.org/2000/svg">
<path d="M15.4932 8.46248C18.4603 7.07889 21.4269 6.52752 24.3928 6.80837C27.3587 7.08921 30.0771 8.0895 32.548 9.80921C35.0189 11.5289 36.944 13.8678 38.3234 16.8259C39.7028 19.784 40.309 22.7265 40.1421 25.6534C39.9751 28.5804 39.1211 31.2351 37.58 33.6176C36.0389 36.0001 33.8975 37.8306 31.1557 39.1091C28.9398 40.1424 26.6884 40.6339 24.4014 40.5834C22.1145 40.533 19.9471 40.0279 17.8992 39.0683L20.7511 45.1841C21.1527 46.0453 21.9647 47.5664 21.6833 48.3358C21.4019 49.1052 21.4777 49.926 20.7086 50.5415C19.9394 51.157 19.2819 51.5153 18.3428 51.3964C17.4036 51.2775 16.6832 51.4634 16.2816 50.6022L15.0046 47.8637L7.28133 31.301C5.93952 28.3255 5.39466 25.3429 5.64676 22.3535C5.89886 19.364 6.87057 16.643 8.56189 14.1904C10.2532 11.7379 12.5637 9.82855 15.4932 8.46248ZM17.8504 13.5174C15.9724 14.3931 14.4868 15.6443 13.3935 17.271C12.3001 18.8977 11.6969 20.7175 11.5839 22.7304C11.4708 24.7433 11.877 26.742 12.8024 28.7265C13.7453 30.7485 15.0153 32.3444 16.6125 33.5142C18.2097 34.684 19.9827 35.373 21.9316 35.5811C23.8805 35.7891 25.7939 35.4553 27.6718 34.5796C29.5873 33.6864 31.0823 32.4308 32.1569 30.8129C33.2315 29.195 33.8434 27.3939 33.9927 25.4097C34.142 23.4255 33.7452 21.4224 32.8023 19.4004C31.8769 17.4159 30.5975 15.8244 28.9641 14.6258C27.3307 13.4273 25.5489 12.7197 23.6188 12.5028C21.6886 12.286 19.7658 12.6242 17.8504 13.5174Z" fill="#19CFD9"/>
<path d="M50.8392 77.3284C47.8721 78.712 44.9056 79.2633 41.9397 78.9825C38.9737 78.7017 36.2553 77.7014 33.7844 75.9817C31.3136 74.2619 29.3884 71.9231 28.0091 68.965C26.6297 66.0069 26.0235 63.0644 26.1904 60.1374C26.3573 57.2105 27.2113 54.5558 28.7524 52.1732C30.2935 49.7907 32.4349 47.9602 35.1767 46.6817C37.3927 45.6484 39.6441 45.157 41.931 45.2074C44.2179 45.2579 46.3853 45.7629 48.4332 46.7226L45.5814 40.6067C45.1798 39.7455 44.3678 38.2245 44.6491 37.455C44.9305 36.6856 44.8547 35.8648 45.6239 35.2493C46.393 34.6338 47.0505 34.2755 47.9897 34.3944C48.9288 34.5133 49.6493 34.3275 50.0508 35.1887L51.3278 37.9271L59.0511 54.4898C60.3929 57.4654 60.9378 60.4479 60.6857 63.4374C60.4336 66.4269 59.4619 69.1479 57.7706 71.6004C56.0792 74.053 53.7688 75.9623 50.8392 77.3284ZM48.4821 72.2735C50.36 71.3978 51.8456 70.1466 52.939 68.5199C54.0323 66.8932 54.6355 65.0734 54.7486 63.0605C54.8616 61.0476 54.4554 59.0489 53.53 57.0644C52.5872 55.0424 51.3171 53.4465 49.72 52.2767C48.1228 51.1068 46.3497 50.4179 44.4009 50.2098C42.452 50.0017 40.5385 50.3356 38.6606 51.2112C36.7451 52.1045 35.2501 53.36 34.1756 54.9779C33.101 56.5959 32.4891 58.3969 32.3398 60.3812C32.1905 62.3654 32.5873 64.3685 33.5302 66.3905C34.4556 68.375 35.735 69.9665 37.3684 71.165C39.0018 72.3635 40.7836 73.0712 42.7137 73.288C44.6438 73.5049 46.5666 73.1667 48.4821 72.2735Z" fill="#7CDF78"/>
</svg>
