<svg width="15" height="15" viewBox="0 0 15 15" fill="none" xmlns="http://www.w3.org/2000/svg">
<path d="M7.5 2.5C5.77411 2.5 4.375 3.89911 4.375 5.625C4.375 5.97018 4.09518 6.25 3.75 6.25C2.63346 6.25 1.875 7.02534 1.875 7.8125C1.875 8.59966 2.63346 9.375 3.75 9.375C4.09518 9.375 4.375 9.65482 4.375 10C4.375 10.3452 4.09518 10.625 3.75 10.625C2.10511 10.625 0.625 9.44158 0.625 7.8125C0.625 6.38057 1.76853 5.29297 3.16236 5.05069C3.44359 2.90585 5.27842 1.25 7.5 1.25C9.72158 1.25 11.5564 2.90585 11.8376 5.05069C13.2315 5.29297 14.375 6.38057 14.375 7.8125C14.375 9.44158 12.8949 10.625 11.25 10.625C10.9048 10.625 10.625 10.3452 10.625 10C10.625 9.65482 10.9048 9.375 11.25 9.375C12.3665 9.375 13.125 8.59966 13.125 7.8125C13.125 7.02534 12.3665 6.25 11.25 6.25C10.9048 6.25 10.625 5.97018 10.625 5.625C10.625 3.89911 9.22589 2.5 7.5 2.5Z" fill="#575353"/>
<path d="M9.81694 10.8081C9.57286 10.564 9.17714 10.564 8.93306 10.8081L8.125 11.6161V6.25C8.125 5.90482 7.84518 5.625 7.5 5.625C7.15482 5.625 6.875 5.90482 6.875 6.25V11.6161L6.06694 10.8081C5.82286 10.564 5.42714 10.564 5.18306 10.8081C4.93898 11.0521 4.93898 11.4479 5.18306 11.6919L7.05806 13.5669C7.17527 13.6842 7.33424 13.75 7.5 13.75C7.66576 13.75 7.82473 13.6842 7.94194 13.5669L9.81694 11.6919C10.061 11.4479 10.061 11.0521 9.81694 10.8081Z" fill="#575353"/>
</svg>
