<svg width="12" height="12" viewBox="0 0 12 12" fill="none" xmlns="http://www.w3.org/2000/svg">
<path d="M10.5764 3.50829C10.5748 2.57832 10.2047 1.68689 9.54709 1.02931C8.88951 0.371718 7.99808 0.0015864 7.06811 0L2.43954 0C2.17015 0.000453811 1.91193 0.10773 1.72152 0.2983C1.53111 0.48887 1.42405 0.747178 1.42383 1.01657V10.9834C1.42406 11.253 1.53123 11.5114 1.72183 11.702C1.91242 11.8926 2.17086 11.9998 2.4404 12H7.06897C7.99894 11.9984 8.89036 11.6283 9.54795 10.9707C10.2055 10.3131 10.5757 9.42168 10.5773 8.49171C10.5761 8.02636 10.4814 7.56598 10.2988 7.13793C10.1163 6.70989 9.84949 6.32291 9.5144 6C9.84941 5.67707 10.1161 5.29008 10.2985 4.86202C10.481 4.43397 10.5755 3.9736 10.5764 3.50829ZM7.06811 4.98343H3.45783V2.034H7.06811C7.45308 2.04328 7.81915 2.20273 8.08814 2.47828C8.35712 2.75383 8.5077 3.12364 8.5077 3.50871C8.5077 3.89379 8.35712 4.2636 8.08814 4.53915C7.81915 4.8147 7.45308 4.97415 7.06811 4.98343ZM7.06811 9.966H3.45783V7.01657H7.06811C7.45308 7.02585 7.81915 7.1853 8.08814 7.46085C8.35712 7.7364 8.5077 8.10621 8.5077 8.49129C8.5077 8.87636 8.35712 9.24617 8.08814 9.52172C7.81915 9.79727 7.45308 9.95672 7.06811 9.966Z" fill="#808191"/>
</svg>
