<svg fill="none" height="24" viewBox="0 0 25 24" width="25" xmlns="http://www.w3.org/2000/svg"><path clip-rule="evenodd" d="m10.0401 2.5c-2.8479 0-5.134 2.28647-5.134 5.134 0 2.8484 2.28592 5.135 5.134 5.135 2.8482 0 5.135-2.2868 5.135-5.135 0-2.84739-2.287-5.134-5.135-5.134zm0 1.5c2.0197 0 3.635 1.61509 3.635 3.634 0 2.01979-1.6152 3.635-3.635 3.635-2.01954 0-3.634-1.61497-3.634-3.635 0-2.01916 1.61458-3.634 3.634-3.634zm10.4757 3.6166c0-2.23452-1.8121-4.047-4.047-4.047-.4142 0-.75.33579-.75.75s.3358.75.75.75c1.4064 0 2.547 1.14083 2.547 2.547 0 1.40679-1.1402 2.547-2.547 2.547-.4142 0-.75.3358-.75.75s.3358.75.75.75c2.2352 0 4.047-1.81179 4.047-4.047zm-.7676 6.3774c-.5547-.123-1.1318-.2062-1.7124-.2457-.4133-.0281-.7711.2841-.7992.6974s.2841.7711.6974.7992c.5056.0344 1.0084.1069 1.5058.217.7766.1546 1.291.4115 1.4301.7034.1048.2205.1048.4791-.0004.7003-.1381.2908-.6499.5472-1.4187.7054-.4057.0834-.667.48-.5835.8857.0834.4057.48.667.8857.5835 1.1948-.2457 2.0689-.6837 2.4713-1.5307.2988-.6287.2988-1.3601 0-1.9889-.4047-.8491-1.288-1.2903-2.4761-1.5266zm-17.2991 4.0245c0-2.6246 2.75759-3.562 7.591-3.562l.3198.0014c4.6444.0404 7.2722.9784 7.2722 3.5406 0 2.5079-2.5185 3.4753-6.9599 3.5564l-.6321.0056c-4.84434 0-7.591-.9209-7.591-3.542zm13.683-.02c0-1.3477-2.0706-2.042-6.092-2.042-4.01735 0-6.091.7049-6.091 2.062 0 1.3484 2.06867 2.042 6.091 2.042 4.0176 0 6.092-.705 6.092-2.062z" fill="#040415" fill-rule="evenodd"/></svg>