<svg width="25" height="24" viewBox="0 0 25 24" fill="none" xmlns="http://www.w3.org/2000/svg">
<path fill-rule="evenodd" clip-rule="evenodd" d="M16.8075 2H8.08993C4.70459 2 2.44873 4.4199 2.44873 7.89317V16.1068C2.44873 19.5833 4.69865 22 8.08993 22H16.8075C20.1988 22 22.4487 19.5833 22.4487 16.1068V7.89317C22.4487 4.41665 20.1988 2 16.8075 2ZM8.08993 3.39535H16.8075C19.405 3.39535 21.0534 5.16587 21.0534 7.89317V16.1068C21.0534 18.8341 19.405 20.6047 16.8075 20.6047H8.08993C5.49245 20.6047 3.84408 18.8341 3.84408 16.1068V7.89317C3.84408 5.16949 5.49796 3.39535 8.08993 3.39535ZM13.1755 7.17893C13.1293 6.8384 12.8374 6.57593 12.4842 6.57593C12.0989 6.57593 11.7865 6.88829 11.7865 7.2736V16.7087L11.7929 16.8034C11.8391 17.1439 12.131 17.4064 12.4842 17.4064C12.8695 17.4064 13.1818 17.094 13.1818 16.7087V7.2736L13.1755 7.17893ZM8.83439 10.2325C8.78819 9.89197 8.49629 9.6295 8.14308 9.6295C7.75777 9.6295 7.44541 9.94186 7.44541 10.3272V16.7087L7.45178 16.8034C7.49797 17.1439 7.78988 17.4064 8.14308 17.4064C8.5284 17.4064 8.84076 17.094 8.84076 16.7087V10.3272L8.83439 10.2325ZM16.7544 13.0017C17.1076 13.0017 17.3995 13.2642 17.4457 13.6047L17.4521 13.6994V16.7087C17.4521 17.094 17.1397 17.4064 16.7544 17.4064C16.4012 17.4064 16.1093 17.1439 16.0631 16.8034L16.0567 16.7087V13.6994C16.0567 13.3141 16.3691 13.0017 16.7544 13.0017Z" fill="#040415"/>
</svg>
