<svg width="15" height="15" viewBox="0 0 15 15" fill="none" xmlns="http://www.w3.org/2000/svg">
<path fill-rule="evenodd" clip-rule="evenodd" d="M9.96193 2.11899C9.78271 1.59142 9.31716 1.25 8.78992 1.25H6.20994L6.11187 1.25396C5.59325 1.29593 5.15069 1.6681 5.0144 2.19083L4.85964 2.98008L4.8415 3.04956C4.7674 3.27455 4.56022 3.4307 4.32357 3.4307L4.32356 3.43071H2.33212L2.27009 3.43498C2.04697 3.46602 1.875 3.66215 1.875 3.89947C1.875 4.15836 2.07966 4.36824 2.33212 4.36824H4.3231C4.32326 4.36824 4.32341 4.36824 4.32357 4.36824C4.32384 4.36824 4.32412 4.36824 4.3244 4.36824H10.6755C10.6757 4.36824 10.676 4.36824 10.6763 4.36824C10.6765 4.36824 10.6766 4.36824 10.6768 4.36824H12.6679L12.7299 4.36396C12.953 4.33292 13.125 4.13679 13.125 3.89947C13.125 3.64058 12.9203 3.43071 12.6679 3.43071H10.6768C10.6766 3.43071 10.6765 3.4307 10.6763 3.4307L10.6063 3.42611C10.3766 3.39575 10.1867 3.21795 10.1402 2.97989L9.99212 2.22005L9.96193 2.11899ZM9.32146 3.43071C9.30064 3.37778 9.28264 3.32326 9.26765 3.2673L9.24372 3.1638L9.10226 2.433C9.0692 2.3062 8.96709 2.21336 8.84388 2.19214L8.78992 2.18753H6.20994C6.08169 2.18753 5.96768 2.26452 5.92032 2.36127L5.90426 2.40377L5.75612 3.16399C5.73804 3.25655 5.71186 3.3457 5.67844 3.43071H9.32146ZM11.8615 5.45011C12.0922 5.46918 12.269 5.66072 12.2812 5.89128L12.2753 6.01984L12.0787 8.42686L11.8726 10.7758C11.8289 11.2448 11.7899 11.6403 11.7562 11.9517C11.639 13.0367 10.9347 13.7077 9.87288 13.7276C8.21835 13.7581 6.62798 13.7578 5.08358 13.7244C4.05248 13.7028 3.35854 13.0245 3.24346 11.9561L3.16393 11.1688L3.02496 9.64189L2.8826 7.96629L2.71982 5.95492C2.69959 5.69686 2.88719 5.47084 3.13884 5.4501C3.36952 5.43108 3.57394 5.59115 3.62199 5.81673L3.64069 6.00108L3.79353 7.8867L3.96043 9.84117C4.03528 10.6873 4.10021 11.372 4.15216 11.853C4.21774 12.4619 4.53836 12.7752 5.10257 12.7871C6.6349 12.8202 8.21342 12.8205 9.85631 12.7902C10.4548 12.779 10.7805 12.4687 10.8475 11.8483L10.9267 11.0654C10.9499 10.8241 10.9746 10.5577 11.0008 10.2683L11.1679 8.34612L11.3691 5.87969C11.3877 5.64314 11.5745 5.46181 11.7993 5.44926L11.8615 5.45011Z" fill="#F64F38"/>
</svg>
