<svg width="16" height="16" viewBox="0 0 16 16" fill="none" xmlns="http://www.w3.org/2000/svg">
<circle cx="8" cy="8" r="8" fill="#6C5DD3"/>
<path d="M10.0977 5.43096C10.2278 5.30078 10.4389 5.30078 10.5691 5.43096C10.6992 5.56113 10.6992 5.77219 10.5691 5.90236L8.4714 8.00002L10.5691 10.0977C10.6992 10.2279 10.6992 10.4389 10.5691 10.5691C10.4389 10.6993 10.2278 10.6993 10.0977 10.5691L8 8.47143L5.90239 10.569C5.77221 10.6992 5.56116 10.6992 5.43098 10.569C5.30081 10.4389 5.30081 10.2278 5.43098 10.0976L7.52859 8.00002L5.43098 5.90241C5.30081 5.77224 5.30081 5.56118 5.43098 5.43101C5.56116 5.30083 5.77221 5.30083 5.90239 5.43101L8 7.52862L10.0977 5.43096Z" fill="white"/>
</svg>
