<svg width="25" height="24" viewBox="0 0 25 24" fill="none" xmlns="http://www.w3.org/2000/svg">
<path fill-rule="evenodd" clip-rule="evenodd" d="M16.4391 3.39039C16.1523 2.54627 15.4075 2 14.5639 2H10.4359L10.279 2.00633C9.4492 2.07349 8.74111 2.66897 8.52304 3.50533L8.27543 4.76813L8.24642 4.87929C8.12785 5.23928 7.79636 5.48913 7.41772 5.48913L7.41771 5.48913H4.23139L4.13214 5.49598C3.77515 5.54564 3.5 5.85945 3.5 6.23916C3.5 6.65338 3.82745 6.98918 4.23139 6.98918H7.41772H17.5821H20.7686L20.8679 6.98234C21.2248 6.93267 21.5 6.61887 21.5 6.23916C21.5 5.82493 21.1725 5.48913 20.7686 5.48913H17.5829C17.5826 5.48913 17.5824 5.48913 17.5821 5.48913L17.4701 5.48177C17.1025 5.4332 16.7987 5.14872 16.7243 4.76783L16.4874 3.55209L16.4391 3.39039ZM15.4143 5.48913C15.381 5.40445 15.3522 5.31721 15.3282 5.22768L15.29 5.06208L15.0636 3.8928C15.0107 3.68991 14.8473 3.54138 14.6502 3.50742L14.5639 3.50005H10.4359C10.2307 3.50005 10.0483 3.62322 9.97252 3.77803L9.94682 3.84604L9.70979 5.06238C9.68087 5.21048 9.63899 5.35311 9.58551 5.48913H15.4143ZM19.4784 8.72017C19.8475 8.75069 20.1304 9.05716 20.15 9.42605L20.1405 9.63174L19.826 13.483L19.4961 17.2414C19.4263 17.9917 19.3638 18.6245 19.3099 19.1226C19.1225 20.8588 17.9955 21.9323 16.2966 21.9641C13.6494 22.013 11.1048 22.0125 8.63373 21.9591C6.98398 21.9244 5.87367 20.8393 5.68955 19.1297L5.5623 17.8702L5.33994 15.427L5.11216 12.7461L4.85172 9.52788C4.81935 9.11498 5.11951 8.75335 5.52215 8.72016C5.89123 8.68973 6.2183 8.94584 6.29519 9.30677L6.32511 9.60173L6.56966 12.6187L6.83669 15.7459C6.95646 17.0996 7.06034 18.1952 7.14346 18.9648C7.24838 19.939 7.76138 20.4404 8.66412 20.4593C11.1159 20.5124 13.6415 20.5129 16.2701 20.4643C17.2277 20.4464 17.7489 19.9499 17.856 18.9574L17.9827 17.7046C18.0198 17.3185 18.0594 16.8923 18.1014 16.4293L18.3686 13.3538L18.6906 9.4075C18.7204 9.02902 19.0192 8.7389 19.379 8.71882L19.4784 8.72017Z" fill="#FF4C00"/>
</svg>
