<svg width="9" height="10" viewBox="0 0 9 10" fill="none" xmlns="http://www.w3.org/2000/svg">
<path fill-rule="evenodd" clip-rule="evenodd" d="M7.45733 2.64228C7.59224 2.64228 7.70456 2.7543 7.70456 2.89684V3.02863C7.70456 3.1677 7.59224 3.28319 7.45733 3.28319H1.70949C1.57423 3.28319 1.46191 3.1677 1.46191 3.02863V2.89684C1.46191 2.7543 1.57423 2.64228 1.70949 2.64228H2.7207C2.92611 2.64228 3.10488 2.49628 3.15109 2.29027L3.20404 2.05375C3.28634 1.73156 3.55719 1.51758 3.86716 1.51758H5.29932C5.60592 1.51758 5.8798 1.73156 5.95906 2.03675L6.01573 2.28992C6.0616 2.49628 6.24037 2.64228 6.44612 2.64228H7.45733ZM6.94366 7.45965C7.04924 6.47575 7.23407 4.13825 7.23407 4.11467C7.24082 4.04322 7.21755 3.97559 7.17134 3.92115C7.12175 3.87016 7.05902 3.83999 6.98987 3.83999H2.17938C2.1099 3.83999 2.04379 3.87016 1.99791 3.92115C1.95137 3.97559 1.92843 4.04322 1.9318 4.11467C1.93242 4.119 1.93906 4.20134 1.95014 4.33899C1.9994 4.95051 2.1366 6.6537 2.22525 7.45965C2.28799 8.05339 2.67756 8.42656 3.24186 8.44008C3.6773 8.45014 4.1259 8.45361 4.58463 8.45361C5.0167 8.45361 5.45552 8.45014 5.90446 8.44008C6.48832 8.43003 6.87755 8.06345 6.94366 7.45965Z" fill="#F74F38" fill-opacity="0.7"/>
</svg>
