<svg width="24" height="24" viewBox="0 0 24 24" fill="none" xmlns="http://www.w3.org/2000/svg">
<path d="M11.0003 13.5858V2C11.0003 1.44771 11.448 1 12.0003 1C12.5526 1 13.0003 1.44771 13.0003 2V13.5858L16.2932 10.2929C16.6837 9.90237 17.3169 9.90237 17.7074 10.2929C18.0979 10.6834 18.0979 11.3166 17.7074 11.7071L12.7074 16.7071C12.3169 17.0976 11.6837 17.0976 11.2932 16.7071L6.29321 11.7071C5.90268 11.3166 5.90268 10.6834 6.29321 10.2929C6.68373 9.90237 7.31689 9.90237 7.70742 10.2929L11.0003 13.5858Z" fill="#7CDF78"/>
<path d="M2.00031 15C2.5526 15 3.00031 15.4477 3.00031 16V20C3.00031 20.5523 3.44803 21 4.00031 21H20.0003C20.5526 21 21.0003 20.5523 21.0003 20V16C21.0003 15.4477 21.448 15 22.0003 15C22.5526 15 23.0003 15.4477 23.0003 16V20C23.0003 21.6569 21.6572 23 20.0003 23H4.00031C2.34346 23 1.00031 21.6569 1.00031 20V16C1.00031 15.4477 1.44803 15 2.00031 15Z" fill="#7CDF78"/>
</svg>
