<svg width="25" height="24" viewBox="0 0 25 24" fill="none" xmlns="http://www.w3.org/2000/svg">
<path fill-rule="evenodd" clip-rule="evenodd" d="M3.5 5C3.5 2.79086 5.29086 1 7.5 1H15.8431C16.904 1 17.9214 1.42143 18.6716 2.17157L20.3284 3.82843C21.0786 4.57857 21.5 5.59599 21.5 6.65685V19C21.5 21.2091 19.7091 23 17.5 23H7.5C5.29086 23 3.5 21.2091 3.5 19V5ZM19.5 8V19C19.5 20.1046 18.6046 21 17.5 21H7.5C6.39543 21 5.5 20.1046 5.5 19V5C5.5 3.89543 6.39543 3 7.5 3H14.5V5C14.5 6.65685 15.8431 8 17.5 8H19.5ZM19.3891 6C19.2909 5.7176 19.1296 5.45808 18.9142 5.24264L17.2574 3.58579C17.0419 3.37035 16.7824 3.20914 16.5 3.11094V5C16.5 5.55228 16.9477 6 17.5 6H19.3891Z" fill="#777E91"/>
<path d="M12.1172 9.07588C11.9993 9.12468 11.8888 9.19702 11.7929 9.29289L8.79289 12.2929C8.40237 12.6834 8.40237 13.3166 8.79289 13.7071C9.18342 14.0976 9.81658 14.0976 10.2071 13.7071L11.5 12.4142V17C11.5 17.5523 11.9477 18 12.5 18C13.0523 18 13.5 17.5523 13.5 17V12.4142L14.7929 13.7071C15.1834 14.0976 15.8166 14.0976 16.2071 13.7071C16.5976 13.3166 16.5976 12.6834 16.2071 12.2929L13.2071 9.29289C12.9125 8.99825 12.4797 8.92591 12.1172 9.07588Z" fill="#777E91"/>
</svg>
