<svg width="15" height="15" viewBox="0 0 15 15" fill="none" xmlns="http://www.w3.org/2000/svg">
<path fill-rule="evenodd" clip-rule="evenodd" d="M2.48042 8.69734L8.53702 2.76039C9.31626 1.99654 10.5802 1.99654 11.3594 2.76039L12.1684 3.55337C12.9476 4.31722 12.9476 5.55615 12.1684 6.32L6.08788 12.2804C5.74019 12.6212 5.26879 12.8124 4.77676 12.8124H2.28659C2.05526 12.8124 1.86937 12.6256 1.87513 12.3989L1.93777 9.93591C1.95022 9.47039 2.14454 9.02658 2.48042 8.69734ZM11.5863 4.12394L10.7773 3.33096C10.3196 2.88223 9.57686 2.88223 9.11908 3.33096L8.64889 3.79186L11.1164 6.21008L11.5863 5.74943C12.0441 5.3007 12.0441 4.57267 11.5863 4.12394ZM3.06249 9.26791L8.06683 4.36243L10.5343 6.78065L5.50581 11.7098L5.43892 11.7698C5.25419 11.9215 5.02014 12.0055 4.77676 12.0055L2.70841 12.0052L2.76067 9.95654C2.76759 9.69805 2.87579 9.45092 3.06249 9.26791ZM13.125 12.409C13.125 12.1862 12.9407 12.0056 12.7134 12.0056H8.41937L8.36352 12.0093C8.16263 12.036 8.00778 12.2048 8.00778 12.409C8.00778 12.6319 8.19206 12.8125 8.41937 12.8125H12.7134L12.7693 12.8088C12.9702 12.7821 13.125 12.6133 13.125 12.409Z" fill="#6C5DD3"/>
</svg>
