<svg width="14" height="14" viewBox="0 0 14 14" fill="none" xmlns="http://www.w3.org/2000/svg">
<path fill-rule="evenodd" clip-rule="evenodd" d="M5.46957 11.6829L10.595 5.05484C10.8735 4.69741 10.9726 4.28417 10.8797 3.86341C10.7992 3.4809 10.564 3.1172 10.2112 2.84129L9.35075 2.15779C8.60175 1.56207 7.67324 1.62478 7.14089 2.30828L6.56521 3.05512C6.49093 3.14855 6.5095 3.28651 6.60235 3.36176C6.60235 3.36176 8.05702 4.5281 8.08797 4.55318C8.18701 4.64724 8.26129 4.77266 8.27986 4.92315C8.31081 5.21788 8.10654 5.49379 7.80323 5.53141C7.66086 5.55022 7.52467 5.50633 7.42563 5.42481L5.89668 4.2083C5.8224 4.15249 5.71098 4.1644 5.64908 4.23965L2.0155 8.94266C1.78027 9.23738 1.6998 9.61989 1.78027 9.98986L2.24453 12.0027C2.26929 12.1093 2.36214 12.1846 2.47356 12.1846L4.51629 12.1595C4.8877 12.1532 5.23434 11.9839 5.46957 11.6829ZM8.32982 11.0561H11.6607C11.9857 11.0561 12.25 11.3238 12.25 11.653C12.25 11.9829 11.9857 12.25 11.6607 12.25H8.32982C8.00484 12.25 7.74052 11.9829 7.74052 11.653C7.74052 11.3238 8.00484 11.0561 8.32982 11.0561Z" fill="#7CDF78"/>
</svg>
