<svg width="25" height="24" viewBox="0 0 25 24" fill="none" xmlns="http://www.w3.org/2000/svg">
<path fill-rule="evenodd" clip-rule="evenodd" d="M2.44861 12C2.44861 6.47779 6.92639 2 12.4486 2C17.9715 2 22.4486 6.47745 22.4486 12C22.4486 17.5225 17.9715 22 12.4486 22C6.92639 22 2.44861 17.5222 2.44861 12ZM20.9486 12C20.9486 7.30586 17.143 3.5 12.4486 3.5C7.75482 3.5 3.94861 7.30621 3.94861 12C3.94861 16.6938 7.75482 20.5 12.4486 20.5C17.143 20.5 20.9486 16.6941 20.9486 12ZM12.4437 7.4541C12.8234 7.4541 13.1372 7.73626 13.1869 8.10233L13.1937 8.2041V12.6231C13.1937 13.0373 12.8579 13.3731 12.4437 13.3731C12.064 13.3731 11.7502 13.0909 11.7006 12.7249L11.6937 12.6231V8.2041C11.6937 7.78989 12.0295 7.4541 12.4437 7.4541ZM13.2037 15.7959C13.2037 15.3817 12.8679 15.0459 12.4537 15.0459L12.3419 15.0527C11.9759 15.1024 11.6937 15.4162 11.6937 15.7959C11.6937 16.2101 12.0295 16.5459 12.4437 16.5459L12.5555 16.5391C12.9216 16.4894 13.2037 16.1756 13.2037 15.7959Z" fill="#040415"/>
</svg>
