<svg width="12" height="12" viewBox="0 0 12 12" fill="none" xmlns="http://www.w3.org/2000/svg">
<path d="M9.93326 0.857143C9.931 0.62903 9.8388 0.411028 9.67669 0.250524C9.51458 0.0900202 9.29567 -1.11807e-05 9.06755 1.04144e-09L5.21041 1.04144e-09C4.98228 -1.11807e-05 4.76337 0.0900202 4.60126 0.250524C4.43916 0.411028 4.34695 0.62903 4.34469 0.857143V1.254C4.34469 1.4836 4.4359 1.7038 4.59825 1.86615C4.76061 2.02851 4.9808 2.11971 5.21041 2.11971H6.12412L3.92041 9.87943H2.93212C2.704 9.87942 2.48509 9.96945 2.32298 10.13C2.16087 10.2905 2.06867 10.5085 2.06641 10.7366V11.1334C2.06629 11.2472 2.0886 11.3599 2.13206 11.465C2.17551 11.5701 2.23927 11.6657 2.31967 11.7461C2.40007 11.8266 2.49554 11.8905 2.60063 11.934C2.70572 11.9776 2.81836 12 2.93212 12H6.85098C7.08013 11.9993 7.29967 11.9078 7.46147 11.7455C7.62327 11.5833 7.71412 11.3634 7.71412 11.1343V10.7374C7.71186 10.5093 7.61966 10.2913 7.45755 10.1308C7.29544 9.97031 7.07653 9.88027 6.84841 9.88029H5.88069L8.08441 2.12057H9.06755C9.29715 2.12057 9.51735 2.02936 9.6797 1.86701C9.84205 1.70466 9.93326 1.48446 9.93326 1.25486V0.857143Z" fill="#808191"/>
</svg>
