<svg width="14" height="14" viewBox="0 0 14 14" fill="none" xmlns="http://www.w3.org/2000/svg">
<g clip-path="url(#clip0_2813_23171)">
<path d="M2.68204 4.45779C2.68279 4.24534 2.76789 4.04189 2.91862 3.89217C2.91865 3.89214 2.91868 3.89211 2.91871 3.89208L6.57049 0.2853C6.6912 0.166172 6.8542 0.0997389 7.0238 0.10055C7.19336 0.10136 7.3557 0.169322 7.47526 0.289556C7.47528 0.289579 7.4753 0.289602 7.47533 0.289625L11.0871 3.9464L11.0874 3.94675C11.2377 4.09732 11.3219 4.30139 11.3217 4.51407C11.3214 4.72675 11.2367 4.93062 11.0861 5.08083C10.9356 5.23104 10.7315 5.31529 10.5188 5.31504C10.3063 5.31479 10.1026 5.2302 9.9524 5.07986C9.95228 5.07974 9.95216 5.07962 9.95204 5.0795L8.88377 3.98623L8.88339 3.98585L8.32339 3.41885L8.32335 3.41881L7.62214 2.70966C7.55278 2.61811 7.46335 2.54363 7.36069 2.49199C7.25584 2.43925 7.14011 2.41178 7.02274 2.41178C6.90538 2.41178 6.78965 2.43925 6.6848 2.49199C6.58255 2.54343 6.49343 2.6175 6.42419 2.70855L6.42191 2.71073L6.3989 2.73279L6.3167 2.8116L6.06638 3.05172C5.8964 3.21483 5.71913 3.38505 5.69215 3.41185L5.69212 3.41183L4.04812 5.02883L4.04812 5.02883L4.04778 5.02916C3.897 5.17889 3.69291 5.26258 3.48042 5.26183C3.26792 5.26108 3.06443 5.17595 2.9147 5.02516C2.76498 4.87438 2.68129 4.67029 2.68204 4.45779Z" fill="#1F2128" stroke="white" stroke-width="0.2"/>
<path d="M5.11594 10.0038L5.11583 10.0036L4.04823 8.92105C4.04818 8.92099 4.04812 8.92093 4.04806 8.92088C3.97372 8.8464 3.88545 8.78729 3.78828 8.74691C3.69103 8.70649 3.58678 8.68563 3.48147 8.6855C3.37616 8.68538 3.27186 8.706 3.17452 8.74619C3.07718 8.78637 2.98871 8.84533 2.91416 8.91971C2.8396 8.99409 2.78043 9.08242 2.74002 9.17967C2.6996 9.27691 2.67874 9.38117 2.67861 9.48648C2.67836 9.69916 2.76261 9.90323 2.91282 10.0538L2.91318 10.0541L6.52495 13.7109C6.52499 13.711 6.52502 13.711 6.52506 13.711C6.64462 13.8312 6.80693 13.8992 6.97647 13.9C7.14605 13.9008 7.30904 13.8344 7.42975 13.7153C7.42976 13.7153 7.42977 13.7153 7.42979 13.7152L11.0806 10.1085L5.11594 10.0038ZM5.11594 10.0038L5.67648 10.5703L5.67694 10.5708L6.37693 11.2876C6.44632 11.3793 6.53582 11.4539 6.63859 11.5056C6.74343 11.5583 6.85917 11.5858 6.97653 11.5858C7.09389 11.5858 7.20963 11.5583 7.31447 11.5056C7.41673 11.4541 7.50585 11.38 7.5751 11.289L8.30726 10.5866L8.30726 10.5866L8.30811 10.5858L9.95111 8.97176L9.95149 8.97138M5.11594 10.0038L9.95149 8.97138M9.95149 8.97138C10.0262 8.89724 10.1147 8.83854 10.212 8.79862C10.3094 8.75869 10.4136 8.73834 10.5189 8.73871C10.6241 8.73908 10.7282 8.76017 10.8253 8.80078C10.9223 8.84139 11.0104 8.90072 11.0846 8.97538C11.1587 9.05004 11.2174 9.13857 11.2573 9.23592C11.2973 9.33327 11.3176 9.43753 11.3172 9.54275C11.3169 9.64796 11.2958 9.75208 11.2552 9.84914C11.2146 9.94613 11.1553 10.0342 11.0807 10.1083L9.95149 8.97138Z" fill="#1F2128" stroke="white" stroke-width="0.2"/>
</g>
<path d="M1.5 6.5C1.22386 6.5 1 6.72386 1 7C1 7.27614 1.22386 7.5 1.5 7.5V6.5ZM12 7.5C12.2761 7.5 12.5 7.27614 12.5 7C12.5 6.72386 12.2761 6.5 12 6.5V7.5ZM1.5 7.5H12V6.5H1.5V7.5Z" fill="black"/>
<defs>
<clipPath id="clip0_2813_23171">
<rect width="14" height="14" fill="white" transform="translate(0 14) rotate(-90)"/>
</clipPath>
</defs>
</svg>
