<svg width="10" height="10" viewBox="0 0 10 10" fill="none" xmlns="http://www.w3.org/2000/svg">
<path d="M0.416504 4.99935C0.416504 6.14994 1.34924 7.08268 2.49984 7.08268H3.74984C3.97996 7.08268 4.1665 6.89613 4.1665 6.66602C4.1665 6.4359 3.97996 6.24935 3.74984 6.24935H2.49984C1.80948 6.24935 1.24984 5.6897 1.24984 4.99935C1.24984 4.30899 1.80948 3.74935 2.49984 3.74935H3.74984C3.97996 3.74935 4.1665 3.5628 4.1665 3.33268C4.1665 3.10256 3.97996 2.91602 3.74984 2.91602H2.49984C1.34924 2.91602 0.416504 3.84876 0.416504 4.99935Z" fill="#B3B9C2"/>
<path d="M5.83317 6.66602C5.83317 6.89613 6.01972 7.08268 6.24984 7.08268H7.49984C8.65043 7.08268 9.58317 6.14994 9.58317 4.99935C9.58317 3.84876 8.65043 2.91602 7.49984 2.91602H6.24984C6.01972 2.91602 5.83317 3.10256 5.83317 3.33268C5.83317 3.5628 6.01972 3.74935 6.24984 3.74935H7.49984C8.19019 3.74935 8.74984 4.30899 8.74984 4.99935C8.74984 5.6897 8.19019 6.24935 7.49984 6.24935H6.24984C6.01972 6.24935 5.83317 6.4359 5.83317 6.66602Z" fill="#B3B9C2"/>
<path d="M3.33317 5.41602C3.10305 5.41602 2.9165 5.22947 2.9165 4.99935C2.9165 4.76923 3.10305 4.58268 3.33317 4.58268H6.6665C6.89662 4.58268 7.08317 4.76923 7.08317 4.99935C7.08317 5.22947 6.89662 5.41602 6.6665 5.41602H3.33317Z" fill="#B3B9C2"/>
</svg>
