<svg width="12" height="12" viewBox="0 0 12 12" fill="none" xmlns="http://www.w3.org/2000/svg">
<path d="M11.3383 6.42789C11.2081 6.29829 11.0318 6.22554 10.8481 6.22554C10.6643 6.22554 10.488 6.29829 10.3578 6.42789L7.05091 9.72532C6.48125 10.2942 5.70932 10.614 4.90427 10.6148C4.09921 10.6156 3.32668 10.2972 2.75595 9.72939C2.18521 9.1616 1.86282 8.39073 1.85941 7.58568C1.85601 6.78063 2.17186 6.00706 2.73777 5.43446L6.27777 1.91075C6.61669 1.5744 7.07484 1.38565 7.55234 1.38565C8.02984 1.38565 8.48798 1.5744 8.82691 1.91075C9.1595 2.24184 9.34874 2.69031 9.35387 3.15957C9.359 3.62883 9.17961 4.08133 8.85434 4.41961L5.28777 7.97075C5.18278 8.07388 5.0415 8.13166 4.89434 8.13166C4.74717 8.13166 4.60589 8.07388 4.50091 7.97075C4.39957 7.86795 4.34276 7.72939 4.34276 7.58504C4.34276 7.44068 4.39957 7.30212 4.50091 7.19932L7.80862 3.89675C7.93817 3.76664 8.0109 3.5905 8.0109 3.40689C8.0109 3.22328 7.93817 3.04715 7.80862 2.91704C7.74454 2.85189 7.66808 2.8002 7.58373 2.76502C7.49939 2.72984 7.40887 2.71187 7.31748 2.71218C7.22677 2.71177 7.13688 2.72936 7.05301 2.76394C6.96915 2.79851 6.89297 2.84939 6.82891 2.91361L3.52462 6.20846C3.34452 6.38856 3.20166 6.60237 3.10419 6.83768C3.00673 7.07299 2.95656 7.3252 2.95656 7.57989C2.95656 7.83459 3.00673 8.0868 3.10419 8.32211C3.20166 8.55742 3.34452 8.77122 3.52462 8.95132C3.70472 9.13142 3.91853 9.27428 4.15384 9.37175C4.38915 9.46922 4.64135 9.51939 4.89605 9.51939C5.15075 9.51939 5.40295 9.46922 5.63826 9.37175C5.87357 9.27428 6.08738 9.13142 6.26748 8.95132L9.80834 5.42675C10.1046 5.13205 10.3396 4.78171 10.5 4.39588C10.6604 4.01004 10.743 3.59631 10.743 3.17846C10.743 2.76062 10.6604 2.34689 10.5 1.96105C10.3396 1.57522 10.1046 1.22488 9.80834 0.930179C9.20958 0.335621 8.4 0.00195313 7.55619 0.00195312C6.71239 0.00195312 5.90281 0.335621 5.30405 0.930179L1.76062 4.45646C1.14257 5.07514 0.721958 5.86327 0.552021 6.7211C0.382085 7.57893 0.470466 8.46789 0.805977 9.27546C1.14149 10.083 1.70905 10.7729 2.43681 11.2578C3.16458 11.7427 4.01984 12.0007 4.89434 11.9993C5.47608 12.0007 6.05238 11.8873 6.59025 11.6656C7.12812 11.444 7.617 11.1184 8.02891 10.7076L11.3375 7.41189C11.468 7.28149 11.5415 7.10459 11.5416 6.92007C11.5418 6.73555 11.4687 6.55852 11.3383 6.42789Z" fill="#808191"/>
</svg>
