<svg width="25" height="24" viewBox="0 0 25 24" fill="none" xmlns="http://www.w3.org/2000/svg">
<path fill-rule="evenodd" clip-rule="evenodd" d="M15.0582 2.01154C15.0145 2.00364 14.9696 1.99951 14.9236 1.99951C14.8777 1.99951 14.8328 2.00364 14.7891 2.01154H8.5331C6.0458 2.01154 3.9491 4.02937 3.9491 6.49054V17.2035C3.9491 19.8041 5.95369 21.8645 8.5331 21.8645H16.5221C18.9754 21.8645 21.0011 19.7026 21.0011 17.2035V8.03754C21.0011 7.84393 20.9262 7.65781 20.7921 7.51814L15.7271 2.24214C15.5857 2.09482 15.3903 2.01154 15.1861 2.01154H15.0582ZM14.1736 3.51105L8.53289 3.51185C6.86142 3.51185 5.44889 4.87125 5.44889 6.49085V17.2038C5.44889 18.9851 6.79127 20.3648 8.53289 20.3648H16.5219C18.1242 20.3648 19.5009 18.8955 19.5009 17.2038L19.5002 8.9826L18.6252 8.98558C18.2916 8.98518 17.912 8.98447 17.4901 8.98351C15.7205 8.97977 14.2764 7.5928 14.1789 5.8469L14.1736 5.65851V3.51105ZM18.6788 7.48335L17.4933 7.48351C16.4879 7.48139 15.6736 6.66497 15.6736 5.65851V4.35307L18.6788 7.48335ZM14.7327 14.8071C15.1469 14.8071 15.4827 15.1428 15.4827 15.5571C15.4827 15.9368 15.2005 16.2505 14.8344 16.3002L14.7327 16.3071H9.33568C8.92146 16.3071 8.58568 15.9713 8.58568 15.5571C8.58568 15.1774 8.86783 14.8636 9.23391 14.8139L9.33568 14.8071H14.7327ZM13.4417 10.6052C13.4417 10.191 13.1059 9.85523 12.6917 9.85523H9.33568L9.23391 9.86207C8.86783 9.91173 8.58568 10.2255 8.58568 10.6052C8.58568 11.0194 8.92146 11.3552 9.33568 11.3552H12.6917L12.7934 11.3484C13.1595 11.2987 13.4417 10.9849 13.4417 10.6052Z" fill="#040415"/>
</svg>
