<svg width="10" height="10" viewBox="0 0 10 10" fill="none" xmlns="http://www.w3.org/2000/svg">
<path d="M8.85903 5.9425C8.81194 5.99083 8.63415 6.1975 8.46854 6.3675C7.49761 7.43667 4.96473 9.18667 3.63902 9.72083C3.43769 9.80667 2.92868 9.98833 2.65672 10C2.39613 10 2.14771 9.94 1.91066 9.81833C1.61516 9.64833 1.37811 9.38083 1.24821 9.065C1.1646 8.84583 1.03471 8.19 1.03471 8.17833C0.904814 7.46083 0.833374 6.295 0.833374 5.00667C0.833374 3.77917 0.904814 2.66083 1.01116 1.9325C1.02334 1.92083 1.15323 1.10583 1.2953 0.826667C1.55589 0.316667 2.06491 0 2.60964 0H2.65672C3.01149 0.0125 3.75755 0.329167 3.75755 0.340833C5.01181 0.875833 7.48624 2.54 8.48072 3.64583C8.48072 3.64583 8.7608 3.93 8.88257 4.1075C9.07254 4.3625 9.16671 4.67833 9.16671 4.99417C9.16671 5.34667 9.06036 5.675 8.85903 5.9425" fill="#19CFD9"/>
</svg>
