<svg width="25" height="24" viewBox="0 0 25 24" fill="none" xmlns="http://www.w3.org/2000/svg">
<path fill-rule="evenodd" clip-rule="evenodd" d="M22.2046 4.59056C22.5162 3.1849 21.209 1.9165 19.7937 2.3261L4.13716 6.88184L3.98607 6.93207C2.51648 7.48514 2.291 9.53188 3.66747 10.3793L10.143 14.3651L14.0388 20.8192L14.1263 20.9524C15.0395 22.2319 17.0618 21.922 17.5229 20.371L22.168 4.73153L22.2046 4.59056ZM20.2846 3.75225C20.5734 3.72124 20.8202 4.00214 20.7303 4.30376L16.085 19.9438L16.0545 20.0205C15.9093 20.306 15.4986 20.335 15.323 20.0441L11.635 13.9351L16.8875 8.64877L16.9598 8.56441C17.1767 8.27008 17.1511 7.8535 16.884 7.58812L16.7996 7.51578C16.5053 7.29891 16.0887 7.3245 15.8233 7.59165L10.578 12.8711L4.45377 9.10186L4.38765 9.05221C4.14982 8.83554 4.22987 8.41683 4.55576 8.32225L20.2117 3.76667L20.2846 3.75225Z" fill="#19CFD9"/>
</svg>
