<svg width="12" height="12" viewBox="0 0 12 12" fill="none" xmlns="http://www.w3.org/2000/svg">
<path d="M5.90059 8.652C7.06887 8.65064 8.18891 8.18594 9.01501 7.35984C9.8411 6.53374 10.3058 5.41371 10.3072 4.24543V1.03286C10.3072 0.758927 10.1983 0.496215 10.0046 0.302517C9.81095 0.108819 9.54824 0 9.27431 0C9.00038 0 8.73767 0.108819 8.54397 0.302517C8.35027 0.496215 8.24145 0.758927 8.24145 1.03286V4.24543C8.24145 4.86626 7.99482 5.46167 7.55583 5.90066C7.11683 6.33966 6.52143 6.58629 5.90059 6.58629C5.27976 6.58629 4.68435 6.33966 4.24536 5.90066C3.80636 5.46167 3.55974 4.86626 3.55974 4.24543V1.03286C3.55199 0.763965 3.43973 0.508682 3.2468 0.321226C3.05386 0.13377 2.79545 0.0289062 2.52645 0.0289062C2.25745 0.0289062 1.99904 0.13377 1.8061 0.321226C1.61317 0.508682 1.50091 0.763965 1.49316 1.03286V4.24543C1.49453 5.41386 1.95934 6.53402 2.78563 7.36014C3.61191 8.18627 4.73217 8.65087 5.90059 8.652Z" fill="#808191"/>
<path d="M11.1334 9.92578H0.866572C0.638638 9.92665 0.420151 10.0169 0.258097 10.1772C0.0960429 10.3375 0.00336725 10.555 4.23947e-07 10.7829V11.1318C-0.000112209 11.2457 0.0222192 11.3584 0.0657181 11.4637C0.109217 11.5689 0.17303 11.6645 0.25351 11.7451C0.33399 11.8257 0.429558 11.8896 0.534751 11.9332C0.639944 11.9768 0.7527 11.9992 0.866572 11.9992H11.1334C11.363 11.9992 11.5831 11.9081 11.7456 11.746C11.908 11.5839 11.9995 11.3639 12 11.1344V10.7846C11.9971 10.5564 11.9046 10.3385 11.7425 10.1778C11.5804 10.0172 11.3617 9.92666 11.1334 9.92578Z" fill="#808191"/>
</svg>
