<svg width="16" height="16" viewBox="0 0 16 16" fill="none" xmlns="http://www.w3.org/2000/svg">
<path d="M9.00049 4V11H7.00049V4H4.00049L8.00049 0L12.0005 4H9.00049Z" fill="white"/>
<path d="M15.0005 16H1.00053C0.713531 16 0.440531 15.877 0.250531 15.662C0.0605311 15.447 -0.0274689 15.161 0.00753112 14.876L1.00753 6.876C1.07053 6.375 1.49653 6 2.00053 6H5.00053V8H2.88353L2.13353 14H13.8675L13.1175 8H11.0005V6H14.0005C14.5045 6 14.9305 6.375 14.9925 6.876L15.9925 14.876C16.0285 15.161 15.9395 15.447 15.7495 15.662C15.5605 15.877 15.2875 16 15.0005 16Z" fill="white"/>
</svg>
