<svg width="16" height="16" viewBox="0 0 16 16" fill="none" xmlns="http://www.w3.org/2000/svg">
<path fill-rule="evenodd" clip-rule="evenodd" d="M2.64578 9.27684L9.10615 2.94409C9.93734 2.12931 11.2855 2.12931 12.1167 2.94409L12.9796 3.78994C13.8108 4.60471 13.8108 5.92624 12.9796 6.74101L6.49374 13.0987C6.12287 13.4623 5.62005 13.6663 5.09521 13.6663H2.43903C2.19228 13.6663 1.99399 13.467 2.00014 13.2252L2.06695 10.598C2.08024 10.1014 2.28751 9.62802 2.64578 9.27684ZM12.3587 4.39855L11.4958 3.5527C11.0075 3.07405 10.2153 3.07405 9.72702 3.5527L9.22549 4.04432L11.8575 6.62375L12.3587 6.1324C12.847 5.65375 12.847 4.87719 12.3587 4.39855ZM3.26665 9.88545L8.60461 4.65293L11.2366 7.23236L5.87286 12.4901L5.80152 12.5542C5.60447 12.716 5.35481 12.8056 5.09521 12.8056L2.88897 12.8053L2.94472 10.62C2.95209 10.3443 3.06751 10.0807 3.26665 9.88545ZM14 13.236C14 12.9983 13.8034 12.8056 13.561 12.8056H8.98066L8.92109 12.8096C8.7068 12.8381 8.54164 13.0181 8.54164 13.236C8.54164 13.4737 8.7382 13.6663 8.98066 13.6663H13.561L13.6205 13.6624C13.8348 13.6339 14 13.4539 14 13.236Z" fill="#040415"/>
</svg>
