<svg width="22" height="22" viewBox="0 0 22 22" fill="none" xmlns="http://www.w3.org/2000/svg">
<path d="M20.23 13.3701L20.8703 12.9796L20.8651 12.971L20.8596 12.9626L20.23 13.3701ZM19.4022 12.5801L19.7541 11.9178L19.743 11.9119L19.7318 11.9064L19.4022 12.5801ZM20.2096 15.4201L20.8538 15.8042L20.8606 15.7928L20.867 15.7811L20.2096 15.4201ZM19.4942 16.6201L18.85 16.2361L18.8485 16.2386L19.4942 16.6201ZM16.6021 17.3601L16.1979 17.9919L16.2043 17.996L16.2108 18L16.6021 17.3601ZM13.8121 18.9501L13.0625 18.9269L13.0621 18.9385V18.9501H13.8121ZM8.18113 18.9501H8.93113V18.9424L8.93097 18.9346L8.18113 18.9501ZM5.40141 17.3601L5.79271 18L5.80494 17.9925L5.81688 17.9845L5.40141 17.3601ZM2.49905 16.6201L1.85242 17.0001L1.85333 17.0016L2.49905 16.6201ZM1.7939 15.4201L1.14561 15.7973L1.14727 15.8001L1.7939 15.4201ZM1.77346 13.3701L2.41377 13.7606L2.42327 13.7451L2.43199 13.7291L1.77346 13.3701ZM2.59102 12.5801L2.26142 11.9064L2.24613 11.9139L2.2312 11.9221L2.59102 12.5801ZM3.23486 11.9401L3.86557 12.346L3.8728 12.3347L3.87963 12.3232L3.23486 11.9401ZM2.57059 9.44012L2.95037 8.79325L2.93872 8.78669L2.57059 9.44012ZM1.81434 6.61012L2.46075 6.99047L2.46304 6.98654L1.81434 6.61012ZM2.49905 5.43012L1.85551 5.04482L1.85035 5.05371L2.49905 5.43012ZM5.38097 4.67012L5.01078 5.32239L5.01768 5.32631L5.02467 5.33009L5.38097 4.67012ZM7.94608 3.98012L8.58545 4.37217L8.58967 4.3653L8.59373 4.35834L7.94608 3.98012ZM8.18113 3.10012L7.43207 3.13938L7.43287 3.1511L8.18113 3.10012ZM8.46728 2.04012L9.09691 2.44764L9.10236 2.43921L9.10759 2.43063L8.46728 2.04012ZM10.2761 1.00012V0.250122H10.2661L10.256 0.250391L10.2761 1.00012ZM13.5362 2.04012L12.8959 2.43064L12.8968 2.43217L13.5362 2.04012ZM13.8121 3.10012L13.0644 3.04134L13.0639 3.04914L13.8121 3.10012ZM14.0472 3.98012L13.3995 4.35834L13.4036 4.3653L13.4078 4.37217L14.0472 3.98012ZM16.6225 4.67012L16.9756 5.33178L16.9857 5.32643L16.9955 5.32079L16.6225 4.67012ZM19.4942 5.43012L20.1429 5.0537L20.1406 5.04978L19.4942 5.43012ZM20.1789 6.61012L19.5302 6.98657L19.5354 6.99539L20.1789 6.61012ZM19.4227 9.44012L19.0573 8.78512L19.0501 8.78915L19.0429 8.79335L19.4227 9.44012ZM18.7686 11.9401L19.4101 11.5516L19.41 11.5514L18.7686 11.9401ZM20.8596 12.9626C20.6182 12.5896 20.2557 12.1843 19.7541 11.9178L19.0504 13.2425C19.2641 13.356 19.4535 13.5507 19.6004 13.7776L20.8596 12.9626ZM20.867 15.7811C21.3406 14.9185 21.4121 13.8679 20.8703 12.9796L19.5897 13.7606C19.8042 14.1123 19.8143 14.5817 19.5522 15.0591L20.867 15.7811ZM20.1384 17.0042L20.8538 15.8042L19.5654 15.0361L18.85 16.2361L20.1384 17.0042ZM17.6853 18.4101C18.678 18.4101 19.6278 17.8684 20.1399 17.0016L18.8485 16.2386C18.6044 16.6518 18.1438 16.9101 17.6853 16.9101V18.4101ZM16.2108 18C16.665 18.2777 17.201 18.4101 17.6853 18.4101V16.9101C17.4543 16.9101 17.1932 16.8425 16.9934 16.7203L16.2108 18ZM15.7027 17.8801C15.9413 17.8801 16.0919 17.9241 16.1979 17.9919L17.0063 16.7284C16.5808 16.4561 16.1182 16.3801 15.7027 16.3801V17.8801ZM14.5618 18.9733C14.5798 18.3897 15.0948 17.8801 15.7027 17.8801V16.3801C14.2872 16.3801 13.1057 17.5305 13.0625 18.9269L14.5618 18.9733ZM11.6967 21.7501C13.261 21.7501 14.5621 20.539 14.5621 18.9501H13.0621C13.0621 19.6613 12.4828 20.2501 11.6967 20.2501V21.7501ZM10.3068 21.7501H11.6967V20.2501H10.3068V21.7501ZM7.43113 18.9501C7.43113 20.5413 8.73462 21.7501 10.3068 21.7501V20.2501C9.50805 20.2501 8.93113 19.6589 8.93113 18.9501H7.43113ZM6.30073 17.8801C6.91031 17.8801 7.4194 18.3897 7.43129 18.9656L8.93097 18.9346C8.90198 17.5306 7.71462 16.3801 6.30073 16.3801V17.8801ZM5.81688 17.9845C5.90402 17.9265 6.04551 17.8801 6.30073 17.8801V16.3801C5.88146 16.3801 5.40978 16.4537 4.98593 16.7357L5.81688 17.9845ZM4.31813 18.4101C4.79039 18.4101 5.33703 18.2786 5.79271 18L5.0101 16.7203C4.81173 16.8416 4.5408 16.9101 4.31813 16.9101V18.4101ZM1.85333 17.0016C2.36647 17.8702 3.31724 18.4101 4.31813 18.4101V16.9101C3.84741 16.9101 3.38787 16.6501 3.14477 16.2386L1.85333 17.0016ZM1.14727 15.8001L1.85243 17.0001L3.14567 16.2401L2.44052 15.0401L1.14727 15.8001ZM1.13315 12.9796C0.596951 13.8588 0.643898 14.9348 1.14561 15.7972L2.44218 15.043C2.18765 14.6054 2.19372 14.1215 2.41377 13.7606L1.13315 12.9796ZM2.2312 11.9221C1.77267 12.1728 1.35508 12.5706 1.11492 13.0112L2.43199 13.7291C2.51886 13.5697 2.71445 13.3674 2.95085 13.2382L2.2312 11.9221ZM2.60415 11.5343C2.45079 11.7726 2.35869 11.8588 2.26142 11.9064L2.92063 13.2538C3.39566 13.0214 3.67146 12.6476 3.86557 12.346L2.60415 11.5343ZM2.19086 10.0869C2.7126 10.3932 2.88189 11.0659 2.59008 11.557L3.87963 12.3232C4.60978 11.0944 4.1659 9.50704 2.95031 8.79335L2.19086 10.0869ZM1.16793 6.22978C0.375925 7.57581 0.819278 9.31429 2.20245 10.0936L2.93872 8.78669C2.29842 8.42595 2.08772 7.62443 2.46074 6.99047L1.16793 6.22978ZM1.85035 5.05371L1.16564 6.23371L2.46304 6.98654L3.14775 5.80654L1.85035 5.05371ZM5.75116 4.01785C4.3702 3.2341 2.65482 3.70993 1.85557 5.04485L3.14253 5.81539C3.52875 5.17031 4.34782 4.94614 5.01078 5.32239L5.75116 4.01785ZM7.30671 3.58807C6.99202 4.10128 6.27324 4.29951 5.73726 4.01016L5.02467 5.33009C6.2669 6.00073 7.85774 5.55897 8.58545 4.37217L7.30671 3.58807ZM7.43287 3.1511C7.44043 3.26208 7.40869 3.41309 7.29843 3.60191L8.59373 4.35834C8.8105 3.98715 8.96271 3.53816 8.9294 3.04914L7.43287 3.1511ZM7.83765 1.6326C7.5639 2.05557 7.40287 2.58047 7.43216 3.13937L8.9301 3.06087C8.91852 2.83978 8.98232 2.62468 9.09691 2.44764L7.83765 1.6326ZM10.256 0.250391C9.25719 0.277169 8.33829 0.811205 7.82697 1.64961L9.10759 2.43063C9.35252 2.02904 9.80304 1.76307 10.2962 1.74985L10.256 0.250391ZM11.7171 0.250122H10.2761V1.75012H11.7171V0.250122ZM14.1765 1.64961C13.6721 0.822571 12.7533 0.250122 11.7171 0.250122V1.75012C12.1934 1.75012 12.644 2.01767 12.8959 2.43063L14.1765 1.64961ZM14.5598 3.1589C14.6057 2.5753 14.4214 2.04907 14.1756 1.64807L12.8968 2.43217C13.0188 2.63117 13.0799 2.84494 13.0644 3.04134L14.5598 3.1589ZM14.6948 3.60191C14.5846 3.41309 14.5528 3.26208 14.5604 3.1511L13.0639 3.04914C13.0305 3.53816 13.1828 3.98715 13.3995 4.35834L14.6948 3.60191ZM16.2694 4.00847C15.7191 4.30215 14.9997 4.09884 14.6865 3.58807L13.4078 4.37217C14.137 5.5614 15.7272 5.9981 16.9756 5.33178L16.2694 4.00847ZM20.1406 5.04978C19.3513 3.70829 17.6204 3.23356 16.2495 4.01946L16.9955 5.32079C17.6481 4.94668 18.4721 5.17195 18.8478 5.81047L20.1406 5.04978ZM20.8276 6.23371L20.1429 5.05371L18.8455 5.80654L19.5302 6.98654L20.8276 6.23371ZM19.788 10.0951C21.1833 9.3169 21.6304 7.57433 20.8224 6.22486L19.5354 6.99539C19.9129 7.62592 19.706 8.42335 19.0573 8.78512L19.788 10.0951ZM19.41 11.5514C19.1138 11.0627 19.2806 10.3932 19.8024 10.0869L19.0429 8.79335C17.8273 9.50704 17.381 11.0976 18.1272 12.3288L19.41 11.5514ZM19.7318 11.9064C19.6366 11.8598 19.5453 11.7749 19.4101 11.5516L18.1271 12.3286C18.3189 12.6454 18.5956 13.0204 19.0726 13.2538L19.7318 11.9064ZM11.012 13.0801C9.79925 13.0801 8.85959 12.1438 8.85959 11.0101H7.35959C7.35959 13.0164 9.01571 14.5801 11.012 14.5801V13.0801ZM13.1337 11.0101C13.1337 12.1541 12.2141 13.0801 11.012 13.0801V14.5801C13.0187 14.5801 14.6337 13.0062 14.6337 11.0101H13.1337ZM11.012 8.93012C12.2106 8.93012 13.1337 9.86272 13.1337 11.0101H14.6337C14.6337 9.01752 13.0222 7.43012 11.012 7.43012V8.93012ZM8.85959 11.0101C8.85959 9.87301 9.80276 8.93012 11.012 8.93012V7.43012C9.0122 7.43012 7.35959 9.00723 7.35959 11.0101H8.85959Z" fill="#808191"/>
</svg>
