<svg width="20" height="20" viewBox="0 0 20 20" fill="none" xmlns="http://www.w3.org/2000/svg">
<path fill-rule="evenodd" clip-rule="evenodd" d="M18.3395 5.65899C19.0095 6.17799 19.4205 6.94899 19.4905 7.78799L19.5005 7.98899V16.098C19.5005 18.188 17.8495 19.888 15.7805 19.998H13.7905C12.8395 19.979 12.0705 19.239 12.0005 18.309L11.9905 18.168V15.309C11.9905 14.998 11.7595 14.739 11.4505 14.688L11.3605 14.678H8.68949C8.37049 14.688 8.11049 14.918 8.07049 15.218L8.06049 15.309V18.159C8.06049 18.218 8.04949 18.288 8.04049 18.338L8.03049 18.359L8.01949 18.428C7.90049 19.279 7.20049 19.928 6.33049 19.989L6.20049 19.998H4.41049C2.32049 19.998 0.610488 18.359 0.500488 16.298V7.98899C0.509488 7.13799 0.880488 6.34799 1.50049 5.79799L7.73049 0.787988C9.00049 -0.221012 10.7805 -0.261012 12.0895 0.667988L12.2505 0.787988L18.3395 5.65899ZM18.0995 16.258L18.1105 16.098V7.99799C18.0995 7.56899 17.9205 7.16799 17.6105 6.86899L17.4805 6.75799L11.3805 1.87799C10.6205 1.26799 9.54049 1.23899 8.74049 1.76799L8.58949 1.87799L2.50949 6.77899C2.16049 7.03799 1.95049 7.42799 1.90049 7.83799L1.88949 7.99799V16.098C1.88949 17.428 2.92949 18.518 4.25049 18.598H6.20049C6.42049 18.598 6.61049 18.449 6.63949 18.239L6.66049 18.059L6.67049 18.008V15.309C6.67049 14.239 7.49049 13.369 8.54049 13.288H11.3605C12.4295 13.288 13.2995 14.109 13.3805 15.159V18.168C13.3805 18.378 13.5305 18.559 13.7305 18.598H15.5895C16.9295 18.598 18.0195 17.569 18.0995 16.258Z" fill="white"/>
<path d="M1.5 7L9.5 1H10.5L18.5 7V18L16.5 19L13.5 19.5L12.5 18V15.5L12 14H9L7.5 14.5V18L7 19H2.5L1.5 17V7Z" fill="white"/>
</svg>
