<svg width="28" height="28" viewBox="0 0 28 28" fill="none" xmlns="http://www.w3.org/2000/svg">
<circle cx="14" cy="14" r="14" transform="rotate(-90 14 14)" fill="white"/>
<path d="M17.8591 14.9425C17.8121 14.9908 17.6343 15.1975 17.4687 15.3675C16.4977 16.4367 13.9648 18.1867 12.6391 18.7208C12.4378 18.8067 11.9288 18.9883 11.6568 19C11.3962 19 11.1478 18.94 10.9108 18.8183C10.6153 18.6483 10.3782 18.3808 10.2483 18.065C10.1647 17.8458 10.0348 17.19 10.0348 17.1783C9.90494 16.4608 9.8335 15.295 9.8335 14.0067C9.8335 12.7792 9.90494 11.6608 10.0113 10.9325C10.0235 10.9208 10.1534 10.1058 10.2954 9.82667C10.556 9.31667 11.065 9 11.6098 9H11.6568C12.0116 9.0125 12.7577 9.32917 12.7577 9.34083C14.0119 9.87583 16.4864 11.54 17.4808 12.6458C17.4808 12.6458 17.7609 12.93 17.8827 13.1075C18.0727 13.3625 18.1668 13.6783 18.1668 13.9942C18.1668 14.3467 18.0605 14.675 17.8591 14.9425Z" fill="#19CFD9"/>
</svg>
