<svg width="28" height="28" viewBox="0 0 28 28" fill="none" xmlns="http://www.w3.org/2000/svg">
<circle cx="14" cy="14" r="14" transform="rotate(-90 14 14)" fill="white"/>
<path fill-rule="evenodd" clip-rule="evenodd" d="M11.3985 14.0003C11.3985 15.4226 12.5628 16.5797 14.0002 16.5797C15.4311 16.5797 16.5953 15.4226 16.5953 14.0003C16.5953 12.5717 15.4311 11.4145 14.0002 11.4145C12.5628 11.4145 11.3985 12.5717 11.3985 14.0003ZM17.8246 10.031C18.9628 10.9102 19.9319 12.1967 20.6278 13.8064C20.6798 13.9292 20.6798 14.0714 20.6278 14.1878C19.2359 17.4072 16.7579 19.3337 14.0002 19.3337H13.9937C11.2424 19.3337 8.76439 17.4072 7.37252 14.1878C7.32049 14.0714 7.32049 13.9292 7.37252 13.8064C8.76439 10.587 11.2424 8.66699 13.9937 8.66699H14.0002C15.379 8.66699 16.6863 9.14538 17.8246 10.031ZM14.001 15.6086C14.892 15.6086 15.6205 14.8846 15.6205 13.9989C15.6205 13.1068 14.892 12.3827 14.001 12.3827C13.9229 12.3827 13.8449 12.3892 13.7733 12.4021C13.7473 13.1132 13.1619 13.6821 12.44 13.6821H12.4075C12.3879 13.7856 12.3749 13.889 12.3749 13.9989C12.3749 14.8846 13.1034 15.6086 14.001 15.6086Z" fill="#7CDF78"/>
</svg>
