<svg width="11" height="11" viewBox="0 0 11 11" fill="none" xmlns="http://www.w3.org/2000/svg">
<path d="M2.61592 1.96774C2.43693 1.78875 2.14673 1.78875 1.96774 1.96774C1.78875 2.14673 1.78875 2.43693 1.96774 2.61592L4.85202 5.5002L1.96774 8.38447C1.78875 8.56346 1.78875 8.85367 1.96774 9.03266C2.14673 9.21165 2.43693 9.21165 2.61592 9.03266L5.5002 6.14838L8.38441 9.03259C8.5634 9.21158 8.8536 9.21158 9.03259 9.03259C9.21158 8.8536 9.21158 8.5634 9.03259 8.38441L6.14838 5.5002L9.03259 2.61599C9.21158 2.437 9.21158 2.1468 9.03259 1.96781C8.8536 1.78882 8.5634 1.78882 8.38441 1.96781L5.5002 4.85202L2.61592 1.96774Z" fill="black" stroke="black" stroke-linecap="round" stroke-linejoin="round"/>
</svg>
