<svg width="17" height="33" viewBox="0 0 17 33" fill="none" xmlns="http://www.w3.org/2000/svg">
<path d="M8.2904 8.90599C10.5113 8.90599 12.3117 7.10557 12.3117 4.88463C12.3117 2.6637 10.5113 0.863281 8.2904 0.863281C6.06946 0.863281 4.26904 2.6637 4.26904 4.88463C4.26904 7.10557 6.06946 8.90599 8.2904 8.90599Z" fill="#E8BBE3"/>
<path d="M16.197 19.2571L12.7658 10.899C12.5696 10.4773 12.3959 9.91211 11.5897 9.91211C11.2919 9.91211 10.9966 9.91211 10.6555 9.91211H6.45648C6.1089 9.91211 5.92825 9.91211 5.50011 9.91211C4.69596 9.91211 4.27641 10.4361 4.0463 10.9081L0.482303 19.203C0.142913 19.8994 0.42643 20.7408 1.11518 21.0825C1.80443 21.424 2.63839 21.1365 2.97778 20.4398L3.246 19.8899C3.246 19.8899 3.32931 19.7415 3.29802 19.9056C3.10404 20.9271 2.5684 23.9999 2.5684 23.9999C2.43829 24.6393 2.86544 25.1625 3.51796 25.1625C3.51796 25.1625 4.68204 25.1625 5.07 25.1625C5.18105 25.1625 5.16131 25.2462 5.16131 25.2462V31.4225C5.16131 32.457 5.80554 32.9993 6.60061 32.9993C7.39538 32.9993 8.04001 32.457 8.04001 31.4225V25.2215C8.04001 25.2215 8.03675 25.1603 8.10151 25.1625C8.18512 25.1651 8.39677 25.1629 8.49164 25.1629C8.54574 25.1629 8.53893 25.228 8.53893 25.228V31.4225C8.53893 32.457 9.18355 32.9993 9.97862 32.9993C10.7734 32.9993 11.4179 32.457 11.4179 31.4225V25.2627C11.4179 25.2627 11.4084 25.1625 11.5277 25.1625C11.9452 25.1625 13.1972 25.1625 13.1972 25.1625C13.8496 25.1625 14.2873 24.6373 14.1697 23.9954C14.1697 23.9954 13.6328 20.6997 13.4898 19.8019C13.4488 19.5446 13.8764 20.4584 13.8764 20.4584C14.2033 21.1608 14.8347 21.454 15.5298 21.125C16.2255 20.7959 16.524 19.9598 16.197 19.2571Z" fill="#E8BBE3"/>
</svg>
