<svg width="16" height="33" viewBox="0 0 16 33" fill="none" xmlns="http://www.w3.org/2000/svg">
<path d="M12.4031 10.8345C12.1645 10.1921 11.5197 9.8291 10.8641 9.8291C10.5369 9.8291 10.5067 9.83749 10.3118 9.83749H5.01009C4.81512 9.83749 4.64187 9.83749 4.45747 9.83749C3.7088 9.83749 3.15736 10.192 2.91876 10.8345L0.0879414 19.4433C-0.181755 20.1697 0.18271 20.9794 0.901866 21.2518C1.62112 21.5242 2.42281 21.1561 2.6926 20.4299L3.44522 18.4035C3.44522 18.4035 3.49892 18.1992 3.49892 19.0913V31.0399C3.49892 32.0845 4.33743 32.9313 5.37189 32.9313C6.40635 32.9313 7.24485 32.0845 7.24485 31.0399V23.2338C7.24485 23.2338 7.23577 23.1648 7.30843 23.1648C7.48415 23.1648 7.83588 23.1648 8.01169 23.1648C8.08109 23.1648 8.07724 23.2338 8.07724 23.2338V31.0399C8.07724 32.0845 8.91574 32.9313 9.9502 32.9313C10.9847 32.9313 11.8232 32.0845 11.8232 31.0399V19.0913C11.8232 18.1848 11.9018 18.4704 11.9018 18.4704L12.6296 20.4301C12.8992 21.1564 13.7011 21.5244 14.4203 21.252C15.1395 20.9794 15.504 20.1698 15.2343 19.4436L12.4031 10.8345Z" fill="#AAB9D7"/>
<path d="M7.69811 8.88381C9.91904 8.88381 11.7195 7.10191 11.7195 4.90382C11.7195 2.70573 9.91904 0.923828 7.69811 0.923828C5.47718 0.923828 3.67676 2.70573 3.67676 4.90382C3.67676 7.10191 5.47718 8.88381 7.69811 8.88381Z" fill="#AAB9D7"/>
</svg>
