<svg width="25" height="24" viewBox="0 0 25 24" fill="none" xmlns="http://www.w3.org/2000/svg">
<path d="M3.55127 16V19C3.55127 19.5304 3.76198 20.0391 4.13706 20.4142C4.51213 20.7893 5.02084 21 5.55127 21H8.55127" stroke="black" stroke-width="2" stroke-linecap="round" stroke-linejoin="round"/>
<path d="M3.55127 7V4C3.55127 3.46957 3.76198 2.96086 4.13706 2.58579C4.51213 2.21071 5.02084 2 5.55127 2H8.55127" stroke="black" stroke-width="2" stroke-linecap="round" stroke-linejoin="round"/>
<path d="M21.5513 16V19C21.5513 19.5304 21.3406 20.0391 20.9655 20.4142C20.5904 20.7893 20.0817 21 19.5513 21H16.5513" stroke="black" stroke-width="2" stroke-linecap="round" stroke-linejoin="round"/>
<path d="M21.5513 7V4C21.5513 3.46957 21.3406 2.96086 20.9655 2.58579C20.5904 2.21071 20.0817 2 19.5513 2H16.5513" stroke="black" stroke-width="2" stroke-linecap="round" stroke-linejoin="round"/>
</svg>
