<svg width="18" height="22" viewBox="0 0 18 22" fill="none" xmlns="http://www.w3.org/2000/svg">
<path fill-rule="evenodd" clip-rule="evenodd" d="M8.99942 22.0004C11.2765 22.0004 13.4605 21.0963 15.0714 19.4869C16.6823 17.8775 17.5883 15.6943 17.5904 13.4172C17.5936 8.78308 12.6373 3.45751 10.2566 0.608512C10.1079 0.416669 9.91737 0.261387 9.69946 0.154558C9.48156 0.0477289 9.2421 -0.0078125 8.99942 -0.0078125C8.75673 -0.0078125 8.51727 0.0477289 8.29937 0.154558C8.08147 0.261387 7.8909 0.416669 7.74227 0.608512C5.36627 3.45751 0.405273 8.64323 0.405273 13.4172C0.407773 15.6948 1.31438 17.8781 2.92587 19.4876C4.53735 21.097 6.72188 22.0008 8.99942 22.0004V22.0004ZM11.4288 18.1661C10.401 18.7907 9.1934 19.0523 7.99926 18.9092C6.80511 18.766 5.69353 18.2264 4.84246 17.3766C3.9914 16.5268 3.45007 15.416 3.30515 14.2221C3.16022 13.0281 3.42009 11.8201 4.04313 10.7914C4.13534 10.6555 4.25744 10.5426 4.40005 10.4613C4.54267 10.38 4.70202 10.3325 4.86587 10.3223C5.02972 10.3121 5.19372 10.3396 5.3453 10.4027C5.49687 10.4658 5.63198 10.5627 5.74027 10.6861L11.531 16.4674C11.6556 16.5749 11.7537 16.7096 11.8179 16.8611C11.882 17.0126 11.9104 17.1769 11.9008 17.3412C11.8912 17.5054 11.8439 17.6653 11.7627 17.8083C11.6814 17.9514 11.5682 18.0738 11.432 18.1661H11.4288Z" fill="white"/>
</svg>
