<svg width="24" height="25" viewBox="0 0 24 25" fill="none" xmlns="http://www.w3.org/2000/svg">
<path fill-rule="evenodd" clip-rule="evenodd" d="M3 5C3 3.34315 4.34315 2 6 2H18C19.6569 2 21 3.34315 21 5V12C21 13.6569 19.6569 15 18 15H6C4.34315 15 3 13.6569 3 12V5ZM6 4C5.44772 4 5 4.44772 5 5V12C5 12.5523 5.44772 13 6 13H18C18.5523 13 19 12.5523 19 12V5C19 4.44772 18.5523 4 18 4H6Z" fill="#040415"/>
<path d="M3 18C3 17.4477 3.44772 17 4 17H20C20.5523 17 21 17.4477 21 18C21 18.5523 20.5523 19 20 19H4C3.44772 19 3 18.5523 3 18Z" fill="#040415"/>
<path d="M4 21C3.44772 21 3 21.4477 3 22C3 22.5523 3.44772 23 4 23H12C12.5523 23 13 22.5523 13 22C13 21.4477 12.5523 21 12 21H4Z" fill="#040415"/>
<path fill-rule="evenodd" clip-rule="evenodd" d="M3 5C3 3.34315 4.34315 2 6 2H18C19.6569 2 21 3.34315 21 5V12C21 13.6569 19.6569 15 18 15H6C4.34315 15 3 13.6569 3 12V5ZM6 4C5.44772 4 5 4.44772 5 5V12C5 12.5523 5.44772 13 6 13H18C18.5523 13 19 12.5523 19 12V5C19 4.44772 18.5523 4 18 4H6Z" stroke="white" stroke-width="0.5" stroke-linecap="round" stroke-linejoin="round"/>
<path d="M3 18C3 17.4477 3.44772 17 4 17H20C20.5523 17 21 17.4477 21 18C21 18.5523 20.5523 19 20 19H4C3.44772 19 3 18.5523 3 18Z" stroke="white" stroke-width="0.5" stroke-linecap="round" stroke-linejoin="round"/>
<path d="M4 21C3.44772 21 3 21.4477 3 22C3 22.5523 3.44772 23 4 23H12C12.5523 23 13 22.5523 13 22C13 21.4477 12.5523 21 12 21H4Z" stroke="white" stroke-width="0.5" stroke-linecap="round" stroke-linejoin="round"/>
</svg>
