<svg width="27" height="24" viewBox="0 0 27 24" fill="none" xmlns="http://www.w3.org/2000/svg">
<g clip-path="url(#clip0_2913_226396)">
<path fill-rule="evenodd" clip-rule="evenodd" d="M19 10C21.2091 10 23 8.20914 23 6C23 3.79086 21.2091 2 19 2C16.7909 2 15 3.79086 15 6C15 6.28739 15.0303 6.5677 15.0879 6.83791L8.01688 10.3734C7.28357 9.53186 6.2039 9 5 9C2.79086 9 1 10.7909 1 13C1 15.2091 2.79086 17 5 17C6.32802 17 7.50488 16.3528 8.23241 15.3566L15.1009 19.1031C15.0349 19.3914 15 19.6916 15 20C15 22.2091 16.7909 24 19 24C21.2091 24 23 22.2091 23 20C23 17.7909 21.2091 16 19 16C17.8179 16 16.7556 16.5128 16.0233 17.328L8.97132 13.4815C8.99025 13.3236 9 13.163 9 13C9 12.7125 8.96968 12.4322 8.91206 12.1619L15.983 8.62643C16.7163 9.46808 17.796 10 19 10ZM19 8C20.1046 8 21 7.10457 21 6C21 4.89543 20.1046 4 19 4C17.8954 4 17 4.89543 17 6C17 7.10457 17.8954 8 19 8ZM5 15C6.10457 15 7 14.1046 7 13C7 11.8954 6.10457 11 5 11C3.89543 11 3 11.8954 3 13C3 14.1046 3.89543 15 5 15ZM21 20C21 21.1046 20.1046 22 19 22C17.8954 22 17 21.1046 17 20C17 18.8954 17.8954 18 19 18C20.1046 18 21 18.8954 21 20Z" fill="#1E1E1E"/>
</g>
<defs>
<clipPath id="clip0_2913_226396">
<rect width="27" height="24" fill="white"/>
</clipPath>
</defs>
</svg>
