<svg width="24" height="24" viewBox="0 0 24 24" fill="none" xmlns="http://www.w3.org/2000/svg">
<g filter="url(#filter0_b_3230_7783)">
<path d="M12 1.38281e-06C18.6274 1.09312e-06 24 5.37258 24 12C24 18.6274 18.6274 24 12 24C5.37258 24 -2.34843e-07 18.6274 -5.24537e-07 12C-8.1423e-07 5.37259 5.37258 1.67251e-06 12 1.38281e-06Z" fill="#B4B4B4" fill-opacity="0.2"/>
</g>
<circle cx="12" cy="11.9995" r="9.88235" transform="rotate(-90 12 11.9995)" fill="white"/>
<path d="M14.7242 12.6644C14.691 12.6985 14.5655 12.8444 14.4486 12.9644C13.7632 13.7191 11.9753 14.9544 11.0395 15.3315C10.8974 15.3921 10.5381 15.5203 10.3462 15.5285C10.1622 15.5285 9.98685 15.4862 9.81952 15.4003C9.61093 15.2803 9.4436 15.0915 9.35191 14.8685C9.29289 14.7138 9.2012 14.2509 9.2012 14.2427C9.10951 13.7362 9.05908 12.9133 9.05908 12.0038C9.05908 11.1374 9.10951 10.348 9.18458 9.83384C9.19318 9.82561 9.28486 9.25031 9.38515 9.05326C9.5691 8.69326 9.9284 8.46973 10.3129 8.46973H10.3462C10.5966 8.47855 11.1232 8.70208 11.1232 8.71031C12.0086 9.08796 13.7552 10.2627 14.4572 11.0433C14.4572 11.0433 14.6549 11.2438 14.7409 11.3691C14.875 11.5491 14.9414 11.7721 14.9414 11.995C14.9414 12.2438 14.8664 12.4756 14.7242 12.6644Z" fill="#19CFD9"/>
<defs>
<filter id="filter0_b_3230_7783" x="-77.6471" y="-77.6471" width="179.294" height="179.294" filterUnits="userSpaceOnUse" color-interpolation-filters="sRGB">
<feFlood flood-opacity="0" result="BackgroundImageFix"/>
<feGaussianBlur in="BackgroundImage" stdDeviation="38.8235"/>
<feComposite in2="SourceAlpha" operator="in" result="effect1_backgroundBlur_3230_7783"/>
<feBlend mode="normal" in="SourceGraphic" in2="effect1_backgroundBlur_3230_7783" result="shape"/>
</filter>
</defs>
</svg>
