<svg width="8" height="8" viewBox="0 0 8 8" fill="none" xmlns="http://www.w3.org/2000/svg">
<path fill-rule="evenodd" clip-rule="evenodd" d="M2.62744 0.65625H1.63119C1.09175 0.65625 0.655273 1.09651 0.655273 1.63865V2.64355C0.655273 3.18547 1.09184 3.62595 1.63119 3.62595H2.62744C3.16679 3.62595 3.60335 3.18547 3.60335 2.64355V1.63865C3.60335 1.09651 3.16688 0.65625 2.62744 0.65625ZM1.63141 1.11368H2.62766C2.91347 1.11368 3.14596 1.34818 3.14596 1.63847V2.64337C3.14596 2.93346 2.91335 3.16815 2.62766 3.16815H1.63141C1.34571 3.16815 1.11311 2.93346 1.11311 2.64337V1.63847C1.11311 1.34818 1.34559 1.11368 1.63141 1.11368ZM6.23898 0.65625H5.24242C4.70298 0.65625 4.2665 1.09651 4.2665 1.63865V2.64355C4.2665 3.18547 4.70307 3.62595 5.24242 3.62595H6.23898C6.77808 3.62595 7.21458 3.1854 7.21458 2.64355V1.63865C7.21458 1.09658 6.77817 0.65625 6.23898 0.65625ZM5.24264 1.11368H6.2392C6.52474 1.11368 6.75719 1.34822 6.75719 1.63847V2.64337C6.75719 2.93343 6.52462 3.16815 6.2392 3.16815H5.24264C4.95695 3.16815 4.72434 2.93346 4.72434 2.64337V1.63847C4.72434 1.34818 4.95682 1.11368 5.24264 1.11368ZM1.63119 4.24537H2.62744C3.16694 4.24537 3.60335 4.6857 3.60335 5.22809V6.23267C3.60335 6.77481 3.16688 7.21507 2.62744 7.21507H1.63119C1.09175 7.21507 0.655273 6.77481 0.655273 6.23267V5.22809C0.655273 4.6857 1.09168 4.24537 1.63119 4.24537ZM2.62766 4.70279H1.63141C1.34556 4.70279 1.11311 4.93733 1.11311 5.2279V6.23248C1.11311 6.52276 1.34559 6.75727 1.63141 6.75727H2.62766C2.91347 6.75727 3.14596 6.52276 3.14596 6.23248V5.2279C3.14596 4.93733 2.91351 4.70279 2.62766 4.70279ZM6.23898 4.24537H5.24242C4.70292 4.24537 4.2665 4.6857 4.2665 5.22809V6.23267C4.2665 6.77481 4.70298 7.21507 5.24242 7.21507H6.23898C6.77817 7.21507 7.21458 6.77474 7.21458 6.23267V5.22809C7.21458 4.68576 6.77823 4.24537 6.23898 4.24537ZM5.24264 4.70279H6.2392C6.52477 4.70279 6.75719 4.93736 6.75719 5.2279V6.23248C6.75719 6.52273 6.52474 6.75727 6.2392 6.75727H5.24264C4.95682 6.75727 4.72434 6.52276 4.72434 6.23248V5.2279C4.72434 4.93733 4.95679 4.70279 5.24264 4.70279Z" fill="#808191"/>
</svg>
